<svg width="53" height="53" viewBox="0 0 53 53" fill="none" xmlns="http://www.w3.org/2000/svg">
<g clip-path="url(#clip0_29_1019)">
<path d="M9.38672 0.395508H43.623C44.8035 0.394408 45.9725 0.628992 47.0635 1.08496C48.1545 1.54096 49.1461 2.20977 49.9814 3.05371C50.8167 3.89763 51.4799 4.89956 51.9316 6.00293C52.3834 7.10626 52.6153 8.28917 52.6143 9.4834V42.7344L52.6035 43.1816C52.5537 44.2232 52.3269 45.2494 51.9316 46.2148C51.4799 47.3183 50.8168 48.3211 49.9814 49.165C49.1462 50.0089 48.1545 50.6778 47.0635 51.1338C45.9725 51.5897 44.8034 51.8243 43.623 51.8232H9.38672C8.20633 51.8244 7.03728 51.5897 5.94629 51.1338C4.85532 50.6778 3.86359 50.0089 3.02832 49.165C2.193 48.3211 1.5299 47.3183 1.07812 46.2148C0.626444 45.1115 0.394394 43.9286 0.395508 42.7344V9.4834C0.394439 8.28917 0.626389 7.10626 1.07812 6.00293C1.5299 4.89957 2.19304 3.89762 3.02832 3.05371C3.86362 2.20979 4.85525 1.54095 5.94629 1.08496C7.03731 0.628999 8.20628 0.394387 9.38672 0.395508Z" stroke="#00B5FF" stroke-width="0.791188"/>
<path d="M20.9828 42.8458C24.0324 42.8458 26.5046 40.348 26.5046 37.2669V31.688H20.9828C17.9331 31.688 15.4609 34.1857 15.4609 37.2669C15.4609 40.348 17.9331 42.8458 20.9828 42.8458Z" fill="#00B5FF"/>
<path d="M15.4609 26.1092C15.4609 23.028 17.9331 20.5303 20.9828 20.5303H26.5046V31.6881H20.9828C17.9331 31.6881 15.4609 29.1903 15.4609 26.1092Z" fill="#6AD2FC"/>
<path d="M15.4609 14.9514C15.4609 11.8703 17.9331 9.37256 20.9828 9.37256H26.5046V20.5303H20.9828C17.9331 20.5303 15.4609 18.0326 15.4609 14.9514Z" fill="#00B5FF"/>
<path d="M26.5049 9.37256H32.0267C35.0763 9.37256 37.5486 11.8703 37.5486 14.9514C37.5486 18.0326 35.0763 20.5303 32.0267 20.5303H26.5049V9.37256Z" fill="#6AD2FC"/>
<path d="M37.5486 26.1092C37.5486 29.1903 35.0763 31.6881 32.0267 31.6881C28.9771 31.6881 26.5049 29.1903 26.5049 26.1092C26.5049 23.028 28.9771 20.5303 32.0267 20.5303C35.0763 20.5303 37.5486 23.028 37.5486 26.1092Z" fill="#00B5FF"/>
</g>
<defs>
<clipPath id="clip0_29_1019">
<rect width="53.0096" height="52.2184" fill="white"/>
</clipPath>
</defs>
</svg>
