<svg width="53" height="53" viewBox="0 0 53 53" fill="none" xmlns="http://www.w3.org/2000/svg">
<path d="M9.38672 0.395508H43.623C44.8035 0.394408 45.9725 0.628992 47.0635 1.08496C48.1545 1.54096 49.1461 2.20977 49.9814 3.05371C50.8167 3.89763 51.4799 4.89956 51.9316 6.00293C52.3834 7.10626 52.6153 8.28917 52.6143 9.4834V42.7344L52.6035 43.1816C52.5537 44.2232 52.3269 45.2494 51.9316 46.2148C51.4799 47.3183 50.8168 48.3211 49.9814 49.165C49.1462 50.0089 48.1545 50.6778 47.0635 51.1338C45.9725 51.5897 44.8034 51.8243 43.623 51.8232H9.38672C8.20633 51.8244 7.03728 51.5897 5.94629 51.1338C4.85532 50.6778 3.86359 50.0089 3.02832 49.165C2.193 48.3211 1.5299 47.3183 1.07812 46.2148C0.626444 45.1115 0.394394 43.9286 0.395508 42.7344V9.4834C0.394439 8.28917 0.626389 7.10626 1.07812 6.00293C1.5299 4.89957 2.19304 3.89762 3.02832 3.05371C3.86362 2.20979 4.85525 1.54095 5.94629 1.08496C7.03731 0.628999 8.20628 0.394387 9.38672 0.395508Z" stroke="#00B5FF" stroke-width="0.791188"/>
<path d="M25.6875 31.3312H17.471L15.7924 36.5754C15.7736 36.671 15.7202 36.756 15.6425 36.8138C15.5649 36.8716 15.4686 36.898 15.3727 36.8878H11.2203C10.9773 36.8878 10.9111 36.7539 10.9773 36.4861L18.0894 15.7996C18.1557 15.5764 18.222 15.331 18.3103 15.0632C18.3992 14.5849 18.4436 14.0993 18.4428 13.6127C18.4362 13.5568 18.4508 13.5004 18.4835 13.4549C18.5163 13.4094 18.5649 13.378 18.6195 13.3672H24.3402C24.5169 13.3672 24.6052 13.4341 24.6273 13.5457L32.6892 36.5307C32.7554 36.7762 32.6892 36.8878 32.4683 36.8878H27.852C27.774 36.8954 27.6958 36.8749 27.6311 36.83C27.5665 36.7852 27.5196 36.7187 27.4986 36.6423L25.6875 31.3312ZM18.7521 26.8012H24.3622C24.2297 26.3325 24.053 25.7746 23.8542 25.1944C23.6555 24.6142 23.4567 23.9448 23.2579 23.2753C23.0591 22.6058 22.8382 21.914 22.6173 21.2223C22.3965 20.5305 22.1977 19.8833 22.021 19.2362C21.8443 18.589 21.6897 18.0311 21.5351 17.4956H21.4909C21.2924 18.4682 21.0417 19.4292 20.7399 20.3743C20.4086 21.4454 20.0773 22.5612 19.7239 23.677C19.4147 24.8151 19.0834 25.8639 18.7521 26.8012Z" fill="#00B5FF"/>
<path d="M37.5045 17.1831C37.142 17.1911 36.7815 17.1262 36.444 16.9921C36.1065 16.858 35.7988 16.6574 35.5388 16.402C35.0327 15.843 34.7632 15.1062 34.7878 14.349C34.7747 13.9801 34.8388 13.6125 34.9758 13.2703C35.1128 12.9281 35.3197 12.6189 35.5829 12.3629C36.1138 11.8559 36.8182 11.5761 37.5487 11.5819C38.4101 11.5819 39.0727 11.8497 39.5587 12.3629C40.048 12.904 40.3094 13.6164 40.2875 14.349C40.301 14.726 40.2395 15.102 40.1068 15.4546C39.974 15.8072 39.7726 16.1294 39.5145 16.402C39.2542 16.6699 38.9401 16.8782 38.5934 17.0129C38.2467 17.1477 37.8754 17.2057 37.5045 17.1831ZM35.0308 36.553V19.37C35.0308 19.1469 35.1191 19.0576 35.3179 19.0576H39.6912C39.89 19.0576 39.9783 19.1692 39.9783 19.37V36.553C39.9783 36.7985 39.89 36.91 39.6912 36.91H35.3621C35.3156 36.9139 35.269 36.9071 35.2255 36.8902C35.182 36.8733 35.1429 36.8467 35.1111 36.8123C35.0792 36.778 35.0554 36.7369 35.0415 36.692C35.0276 36.647 35.0239 36.5995 35.0308 36.553Z" fill="#00B5FF"/>
</svg>
