<svg width="53" height="53" viewBox="0 0 53 53" fill="none" xmlns="http://www.w3.org/2000/svg">
<g clip-path="url(#clip0_20_935)">
<path d="M9.38672 0.395508H43.623C44.8035 0.394408 45.9725 0.628992 47.0635 1.08496C48.1545 1.54096 49.1461 2.20977 49.9814 3.05371C50.8167 3.89763 51.4799 4.89956 51.9316 6.00293C52.3834 7.10626 52.6153 8.28917 52.6143 9.4834V42.7344L52.6035 43.1816C52.5537 44.2232 52.3269 45.2494 51.9316 46.2148C51.4799 47.3183 50.8168 48.3211 49.9814 49.165C49.1462 50.0089 48.1545 50.6778 47.0635 51.1338C45.9725 51.5897 44.8034 51.8243 43.623 51.8232H9.38672C8.20633 51.8244 7.03728 51.5897 5.94629 51.1338C4.85532 50.6778 3.86359 50.0089 3.02832 49.165C2.193 48.3211 1.5299 47.3183 1.07812 46.2148C0.626444 45.1115 0.394394 43.9286 0.395508 42.7344V9.4834C0.394439 8.28917 0.626389 7.10626 1.07812 6.00293C1.5299 4.89957 2.19304 3.89762 3.02832 3.05371C3.86362 2.20979 4.85525 1.54095 5.94629 1.08496C7.03731 0.628999 8.20628 0.394387 9.38672 0.395508Z" stroke="#00B5FF" stroke-width="0.791188"/>
<path d="M19.2604 13.6572V36.553C19.2604 36.7984 19.15 36.91 18.9512 36.91H14.6221C14.4233 36.91 14.335 36.7984 14.335 36.553V13.6572C14.335 13.4564 14.4454 13.3671 14.6442 13.3671H18.9512C18.9847 13.3618 19.0189 13.3634 19.0518 13.3718C19.0846 13.3803 19.1154 13.3954 19.1423 13.4163C19.1691 13.4372 19.1915 13.4634 19.208 13.4933C19.2245 13.5232 19.2349 13.5562 19.2383 13.5902C19.2467 13.5991 19.253 13.6096 19.2568 13.6212C19.2606 13.6328 19.2619 13.6451 19.2604 13.6572Z" fill="#00B5FF"/>
<path d="M31.9832 37.267C30.346 37.2941 28.7235 36.951 27.2344 36.2628C25.8491 35.6082 24.688 34.5517 23.8992 33.2278C23.082 31.8666 22.6844 30.1706 22.6844 28.1399C22.6621 26.4885 23.0818 24.8616 23.8992 23.4313C24.7374 21.9777 25.9515 20.782 27.4111 19.9724C28.9572 19.1021 30.8126 18.6781 32.9992 18.6781C33.1541 18.6763 33.309 18.6838 33.4631 18.7004C33.6618 18.7227 33.8827 18.7227 34.1478 18.745V11.6933C34.1478 11.5371 34.214 11.4479 34.3686 11.4479H38.8524C38.9019 11.4411 38.9521 11.4534 38.993 11.4824C39.034 11.5113 39.0626 11.5548 39.0732 11.6041V32.8931C39.0732 33.2948 39.0953 33.7411 39.1174 34.232C39.1395 34.723 39.1837 35.147 39.2058 35.5263C39.2105 35.6017 39.1917 35.6767 39.1521 35.7407C39.1125 35.8048 39.054 35.8546 38.9849 35.8834C37.828 36.3746 36.6204 36.7339 35.3847 36.9545C34.2622 37.1601 33.1239 37.2646 31.9832 37.267ZM34.1478 32.8039V22.985C33.9511 22.9371 33.752 22.8998 33.5514 22.8734C33.3085 22.8511 33.0655 22.8288 32.8225 22.8288C31.9567 22.8189 31.1011 23.0178 30.3267 23.409C29.5719 23.789 28.9257 24.3574 28.4492 25.0604C27.9633 25.7745 27.7204 26.734 27.7204 27.8944C27.7011 28.6777 27.8285 29.4575 28.0958 30.1929C28.3095 30.7877 28.6486 31.3283 29.0898 31.7773C29.5156 32.1879 30.0296 32.4934 30.5917 32.67C31.1834 32.8657 31.8024 32.9637 32.425 32.9601C32.7563 32.9601 33.0655 32.9377 33.3526 32.9154C33.6225 32.9365 33.8938 32.8984 34.1478 32.8039Z" fill="#00B5FF"/>
</g>
<defs>
<clipPath id="clip0_20_935">
<rect width="53.0096" height="52.2184" fill="white"/>
</clipPath>
</defs>
</svg>
