<svg width="53" height="53" viewBox="0 0 53 53" fill="none" xmlns="http://www.w3.org/2000/svg">
<g clip-path="url(#clip0_29_1043)">
<path d="M9.38672 0.395508H43.623C44.8035 0.394408 45.9725 0.628992 47.0635 1.08496C48.1545 1.54096 49.1461 2.20977 49.9814 3.05371C50.8167 3.89763 51.4799 4.89956 51.9316 6.00293C52.3834 7.10626 52.6153 8.28917 52.6143 9.4834V42.7344L52.6035 43.1816C52.5537 44.2232 52.3269 45.2494 51.9316 46.2148C51.4799 47.3183 50.8168 48.3211 49.9814 49.165C49.1462 50.0089 48.1545 50.6778 47.0635 51.1338C45.9725 51.5897 44.8034 51.8243 43.623 51.8232H9.38672C8.20633 51.8244 7.03728 51.5897 5.94629 51.1338C4.85532 50.6778 3.86359 50.0089 3.02832 49.165C2.193 48.3211 1.5299 47.3183 1.07812 46.2148C0.626444 45.1115 0.394394 43.9286 0.395508 42.7344V9.4834C0.394439 8.28917 0.626389 7.10626 1.07812 6.00293C1.5299 4.89957 2.19304 3.89762 3.02832 3.05371C3.86362 2.20979 4.85525 1.54095 5.94629 1.08496C7.03731 0.628999 8.20628 0.394387 9.38672 0.395508Z" stroke="#00B5FF" stroke-width="0.791188"/>
<path d="M27.8309 36.91H13.8276C13.5846 36.91 13.4742 36.7761 13.4742 36.5083V13.7018C13.4692 13.6651 13.4717 13.6277 13.4813 13.592C13.4909 13.5562 13.5075 13.5228 13.5302 13.4936C13.5529 13.4645 13.5811 13.4403 13.6132 13.4223C13.6453 13.4044 13.6806 13.3932 13.7171 13.3894H18.1346C18.1622 13.3843 18.1906 13.3849 18.218 13.3912C18.2453 13.3976 18.2712 13.4094 18.2939 13.4261C18.3166 13.4428 18.3357 13.464 18.3501 13.4883C18.3645 13.5127 18.3738 13.5398 18.3776 13.5679V32.3799H28.5819C28.8028 32.3799 28.869 32.4915 28.8249 32.6923L28.1843 36.5752C28.1809 36.6265 28.1674 36.6766 28.1446 36.7226C28.1219 36.7685 28.0903 36.8095 28.0518 36.843C27.987 36.8883 27.9097 36.9118 27.8309 36.91Z" fill="#00B5FF"/>
<path d="M31.3651 19.0573H35.2304C35.3351 19.0599 35.4363 19.0958 35.5196 19.1599C35.6029 19.224 35.664 19.3131 35.6942 19.4144C35.7855 19.5722 35.8455 19.7466 35.8709 19.9276C35.9151 20.1508 35.9592 20.3962 35.9813 20.6194C36.0034 20.8426 36.0255 21.1327 36.0255 21.4228C36.6887 20.6405 37.4901 19.9898 38.3889 19.5036C39.3979 18.951 40.5323 18.6741 41.6799 18.7003C41.7162 18.6953 41.7532 18.6977 41.7886 18.7075C41.824 18.7172 41.8571 18.734 41.8859 18.7569C41.9147 18.7798 41.9387 18.8083 41.9565 18.8407C41.9742 18.8732 41.9853 18.9089 41.9891 18.9457V23.3865C41.9891 23.5651 41.8787 23.632 41.6357 23.632C40.2042 23.5454 38.773 23.8055 37.4612 24.3907C37.0138 24.5841 36.6085 24.8647 36.2685 25.2164V36.5973C36.2685 36.8205 36.1801 36.9098 35.9813 36.9098H31.6743C31.6336 36.9167 31.5919 36.9152 31.5517 36.9053C31.5116 36.8955 31.4738 36.8775 31.4408 36.8525C31.4077 36.8274 31.38 36.7958 31.3594 36.7597C31.3388 36.7235 31.3257 36.6834 31.3209 36.642V24.1899C31.3209 23.6543 31.3209 23.0964 31.2988 22.5162C31.2767 21.936 31.2767 21.3558 31.2546 20.7756C31.2326 20.2847 31.1884 19.7937 31.1221 19.3028C31.1163 19.2764 31.1156 19.2491 31.1202 19.2225C31.1248 19.1959 31.1346 19.1704 31.149 19.1476C31.1633 19.1248 31.182 19.1051 31.2039 19.0896C31.2259 19.0741 31.2506 19.0631 31.2767 19.0573C31.2988 19.035 31.3209 19.035 31.3651 19.0573Z" fill="#00B5FF"/>
</g>
<defs>
<clipPath id="clip0_29_1043">
<rect width="53.0096" height="52.2184" fill="white"/>
</clipPath>
</defs>
</svg>
