<svg width="53" height="53" viewBox="0 0 53 53" fill="none" xmlns="http://www.w3.org/2000/svg">
<g clip-path="url(#clip0_29_1055)">
<path d="M9.38672 0.395508H43.623C44.8035 0.394408 45.9725 0.628992 47.0635 1.08496C48.1545 1.54096 49.1461 2.20977 49.9814 3.05371C50.8167 3.89763 51.4799 4.89956 51.9316 6.00293C52.3834 7.10626 52.6153 8.28917 52.6143 9.4834V42.7344L52.6035 43.1816C52.5537 44.2232 52.3269 45.2494 51.9316 46.2148C51.4799 47.3183 50.8168 48.3211 49.9814 49.165C49.1462 50.0089 48.1545 50.6778 47.0635 51.1338C45.9725 51.5897 44.8034 51.8243 43.623 51.8232H9.38672C8.20633 51.8244 7.03728 51.5897 5.94629 51.1338C4.85532 50.6778 3.86359 50.0089 3.02832 49.165C2.193 48.3211 1.5299 47.3183 1.07812 46.2148C0.626444 45.1115 0.394394 43.9286 0.395508 42.7344V9.4834C0.394439 8.28917 0.626389 7.10626 1.07812 6.00293C1.5299 4.89957 2.19304 3.89762 3.02832 3.05371C3.86362 2.20979 4.85525 1.54095 5.94629 1.08496C7.03731 0.628999 8.20628 0.394387 9.38672 0.395508Z" stroke="#00B5FF" stroke-width="0.791188"/>
<path d="M11.9277 36.6197V13.657C11.9277 13.5007 11.994 13.4115 12.1486 13.4115C12.5241 13.4115 12.8775 13.4115 13.3855 13.3892C13.8935 13.3669 14.4678 13.3668 15.0641 13.3445C15.6605 13.3222 16.301 13.3222 16.9857 13.2999C17.6704 13.2776 18.3331 13.2776 18.9957 13.2776C20.8068 13.2776 22.3088 13.5007 23.5457 13.9694C24.6545 14.3498 25.6655 14.9749 26.5054 15.7992C27.2171 16.5207 27.767 17.3883 28.1178 18.3432C28.4521 19.2732 28.624 20.2548 28.6258 21.2442C28.6258 23.1634 28.184 24.7478 27.3005 25.9975C26.4129 27.2454 25.1737 28.1942 23.7445 28.72C22.2425 29.2778 20.586 29.4787 18.7748 29.4787C18.2447 29.4787 17.8913 29.4787 17.6704 29.4564C17.4496 29.4341 17.1403 29.4341 16.7207 29.4341V36.5973C16.7256 36.6341 16.7232 36.6714 16.7136 36.7072C16.7039 36.7429 16.6873 36.7764 16.6646 36.8055C16.642 36.8346 16.6138 36.8589 16.5817 36.8768C16.5495 36.8947 16.5142 36.9059 16.4777 36.9098H12.1928C12.0161 36.9098 11.9277 36.8205 11.9277 36.6197ZM16.7428 17.7184V25.2164C17.052 25.2387 17.3391 25.261 17.6042 25.261H18.7748C19.6371 25.2621 20.4942 25.1265 21.3149 24.8594C22.019 24.6502 22.648 24.2394 23.126 23.6766C23.5898 23.1187 23.8107 22.36 23.8107 21.3781C23.8315 20.6808 23.6553 19.9919 23.3027 19.3921C22.9344 18.8126 22.3928 18.367 21.7566 18.1201C20.9274 17.7919 20.0402 17.64 19.1503 17.6738C18.576 17.6738 18.068 17.6738 17.6484 17.6961C17.3464 17.6761 17.0434 17.6836 16.7428 17.7184Z" fill="#00B5FF"/>
<path d="M42.4081 23.8553C41.7412 23.5005 41.027 23.2449 40.2877 23.0966C39.4758 22.9108 38.6465 22.8136 37.814 22.8065C37.367 22.7909 36.9202 22.8436 36.4887 22.9627C36.2136 23.0205 35.9696 23.1796 35.804 23.409C35.6924 23.5901 35.6314 23.7983 35.6273 24.0115C35.6376 24.2238 35.715 24.4272 35.8482 24.5917C36.0575 24.8398 36.3126 25.0444 36.5992 25.1943C37.1072 25.462 37.6373 25.7075 38.1674 25.9307C39.3607 26.3366 40.5024 26.8834 41.5688 27.5597C42.2942 28.0205 42.894 28.6572 43.3137 29.4119C43.6686 30.1238 43.8432 30.9136 43.8217 31.7104C43.8396 32.7652 43.5392 33.8004 42.9603 34.6784C42.3442 35.5692 41.4846 36.2593 40.4865 36.6645C39.4043 37.1331 38.079 37.3786 36.4887 37.3786C35.4804 37.3827 34.4742 37.2855 33.4848 37.0885C32.7058 36.9525 31.9482 36.7123 31.2319 36.3744C31.1549 36.3353 31.0909 36.2744 31.0477 36.1991C31.0046 36.1237 30.9841 36.0373 30.989 35.9504V32.0675C30.9871 32.0293 30.9941 31.9913 31.0094 31.9564C31.0248 31.9215 31.048 31.8907 31.0773 31.8666C31.1084 31.8483 31.1446 31.8406 31.1804 31.8446C31.2162 31.8486 31.2497 31.8642 31.2761 31.8889C32.1269 32.3957 33.0511 32.7647 34.0149 32.9824C34.866 33.2061 35.7419 33.3186 36.6212 33.3171C37.4606 33.3171 38.0569 33.2055 38.4545 33.0047C38.6318 32.9219 38.7821 32.7898 38.8877 32.6238C38.9934 32.4578 39.05 32.2648 39.0509 32.0675C39.0509 31.755 38.8742 31.4649 38.5208 31.1748C38.1674 30.8847 37.4385 30.55 36.3562 30.126C35.2459 29.7307 34.1915 29.1906 33.2198 28.5193C32.5277 28.0209 31.9542 27.3729 31.5412 26.6225C31.1887 25.9177 31.0142 25.1357 31.0332 24.3463C31.0364 23.394 31.296 22.4607 31.7841 21.6461C32.3452 20.7503 33.1506 20.0373 34.1033 19.5931C35.1414 19.0575 36.4446 18.812 38.0128 18.812C38.9293 18.8123 39.8446 18.8794 40.7516 19.0129C41.4037 19.102 42.042 19.2745 42.6511 19.5261C42.7481 19.5609 42.8276 19.6331 42.872 19.7269C42.8974 19.8141 42.9123 19.904 42.9161 19.9947V23.6322C42.9165 23.6755 42.9067 23.7184 42.8875 23.7572C42.8683 23.7959 42.8403 23.8296 42.8057 23.8553C42.6772 23.902 42.5366 23.902 42.4081 23.8553Z" fill="#00B5FF"/>
</g>
<defs>
<clipPath id="clip0_29_1055">
<rect width="53.0096" height="52.2184" fill="white"/>
</clipPath>
</defs>
</svg>
