<svg width="53" height="53" viewBox="0 0 53 53" fill="none" xmlns="http://www.w3.org/2000/svg">
<path d="M11.5029 0.395508H40.5156C46.6491 0.395634 51.6221 5.3694 51.6221 11.5029V40.5156L51.6084 41.0879C51.3159 46.9608 46.4632 51.6278 40.5215 51.6279H11.5029C5.36944 51.6279 0.395691 46.6549 0.395508 40.5215V11.5029C0.395508 5.36932 5.36932 0.395508 11.5029 0.395508Z" stroke="#00B5FF" stroke-width="0.791188"/>
<path d="M24.1103 22.2352C17.5398 24.1897 5.93358 28.6678 5.37598 46.8388C7.47418 37.0548 12.6478 35.6522 22.1558 33.416C31.6638 31.1856 36.8317 28.6678 42.5687 21.8156C48.3 14.9634 46.3455 5.17944 46.3455 5.17944C46.3455 10.4911 42.5687 13.9861 38.9357 16.504C35.3026 19.0218 30.6809 20.2807 24.1103 22.2352Z" fill="#00B5FF"/>
<path d="M5.37556 46.8447C5.39281 46.3733 5.41581 45.9191 5.44455 45.4707C5.39281 45.9536 5.36407 46.4136 5.37556 46.8447Z" fill="#00B5FF"/>
<path d="M29.8291 31.1741C24.8911 32.1054 19.8612 31.9962 16.5616 32.8642C10.6924 34.399 5.80039 41.3892 5.375 46.8388C5.39225 46.3732 5.41524 45.919 5.44398 45.4649C6.09356 39.5325 11.5604 29.8002 23.5517 24.4714C27.3687 22.7756 30.8063 20.9763 33.7956 19.1368C35.7271 18.3837 37.4171 17.5502 38.929 16.504C42.562 13.9861 46.3388 10.4911 46.3388 5.17944C46.3388 5.17944 46.6492 13.1584 44.0624 19.9876C43.706 20.6371 43.3036 21.2637 42.8437 21.8558C39.3601 26.3799 35.2499 29.1507 29.8291 31.1741Z" fill="#00B5FF"/>
<path d="M5.45604 45.235C5.42154 45.7581 5.3928 46.2927 5.37556 46.8388C5.34107 46.3444 5.36981 45.8041 5.45604 45.235C6.62873 28.3976 17.7348 24.1322 24.1099 22.2352C30.6804 20.2807 35.2965 19.0218 38.9295 16.504C42.5626 13.9861 46.3393 10.4911 46.3393 5.17944C46.3393 5.17944 48.2996 14.9634 42.5626 21.8156C36.8313 28.6678 32.0773 25.8683 22.5693 28.1044C13.8948 30.1509 6.38154 39.2968 5.45604 45.235Z" fill="#00B5FF"/>
<path d="M20.1946 29.0874C29.145 27.4089 34.7326 27.5468 40.8892 20.9763C47.0401 14.4058 46.3388 5.17944 46.3388 5.17944C46.3388 10.4911 42.562 13.9861 38.929 16.504C37.4114 17.556 35.7213 18.3837 33.7956 19.1368C30.8063 20.9763 26.6732 22.8561 22.8562 24.5519C10.8648 29.8807 6.09356 39.5325 5.44398 45.4649C5.41524 45.9133 5.39225 46.3674 5.375 46.8388C5.80039 41.3835 11.25 30.766 20.1946 29.0874Z" fill="#00B5FF"/>
<path d="M5.37556 46.8447C5.39281 46.3733 5.41581 45.9191 5.44455 45.4707C5.39281 45.9536 5.36407 46.4136 5.37556 46.8447Z" fill="#00B5FF"/>
<path d="M26.4901 23.6379C10.1299 26.7133 5.2379 41.1593 5.37587 46.8445C5.79551 41.395 10.5495 35.1004 16.7004 31.7432C25.7888 27.1272 35.2968 29.645 41.8673 22.9365C48.4379 16.228 46.3396 5.17944 46.3396 5.17944C46.3396 10.4911 44.3794 15.5267 40.8843 18.4642C37.395 21.3959 30.4048 22.8906 26.4901 23.6379Z" fill="#6AD2FC"/>
</svg>
