<svg width="101" height="25" viewBox="0 0 101 25" fill="none" xmlns="http://www.w3.org/2000/svg">
<path d="M54.6954 6.9506C53.7904 6.40541 52.6631 6.13387 51.3124 6.13387C49.8835 6.13387 48.6779 6.40436 47.6977 6.94534C46.7165 7.48631 45.9745 8.25988 45.4707 9.26605C44.9668 10.2722 44.7139 11.4668 44.7139 12.8487C44.7139 14.4201 44.9838 15.7072 45.5236 16.7092C46.0634 17.7122 46.9134 18.45 48.0724 18.9236C49.2315 19.3972 50.7282 19.634 52.5625 19.634C53.2219 19.634 53.8803 19.6046 54.5398 19.5456C55.1992 19.4867 55.8978 19.3857 56.6356 19.2436V15.5609C56.0873 15.6557 55.5263 15.7367 54.9504 15.8041C54.3746 15.8714 53.8253 15.9051 53.3013 15.9051C52.3085 15.9051 51.557 15.8377 51.0447 15.7041C50.5323 15.5704 50.1873 15.3473 50.0084 15.0347C49.8909 14.8295 49.8126 14.5737 49.7724 14.2706H57.4104V13.015C57.4104 11.5784 57.1838 10.3448 56.7319 9.31447C56.2788 8.28409 55.6004 7.49684 54.6954 6.95165V6.9506ZM49.7427 11.4984C49.7522 10.9637 49.8052 10.5332 49.9015 10.208C50.0084 9.84492 50.1735 9.58811 50.3958 9.43866C50.6181 9.28921 50.9039 9.21343 51.2532 9.21343C51.6025 9.21343 51.8978 9.29026 52.1169 9.44392C52.3349 9.59759 52.4937 9.85439 52.5932 10.2133C52.6811 10.5332 52.7308 10.9627 52.7403 11.4984H49.7427Z" fill="white"/>
<path d="M64.8439 1.84712H60.7232L59.7822 6.34753H57.877V10.2554H59.7822V14.3411C59.7822 16.1651 60.2448 17.5007 61.1699 18.35C62.095 19.1983 63.4266 19.6235 65.1657 19.6235C65.6261 19.6235 66.1024 19.5919 66.5946 19.5288C67.0868 19.4656 67.507 19.3941 67.8574 19.3162V15.4083C67.6108 15.4399 67.3906 15.4673 67.1958 15.4915C67.0011 15.5146 66.8084 15.5273 66.6179 15.5273C65.9585 15.5273 65.498 15.3873 65.2366 15.1073C64.9741 14.8274 64.8439 14.3116 64.8439 13.5623V10.2585H67.8574V6.35069H64.8439V1.84712Z" fill="white"/>
<path d="M74.7979 6.34648H69.7246V19.373H74.7979V6.34648Z" fill="white"/>
<path d="M72.2615 0.0937454C71.2136 0.0937454 70.4472 0.308452 69.9624 0.738916C69.4777 1.16938 69.2363 1.78298 69.2363 2.58076C69.2363 3.37854 69.4787 3.98266 69.9624 4.41628C70.4462 4.85096 71.2136 5.06777 72.2615 5.06777C73.3094 5.06777 74.0852 4.85096 74.5658 4.41628C75.0463 3.98266 75.2866 3.37012 75.2866 2.58076C75.2866 1.7914 75.0463 1.16938 74.5658 0.738916C74.0852 0.308452 73.3168 0.0937454 72.2615 0.0937454Z" fill="white"/>
<path d="M95.1059 6.34646L92.7116 14.7158L90.294 6.34646H83.2318V5.86127C83.2318 5.22978 83.4223 4.74985 83.8034 4.42253C84.1844 4.0952 84.8079 3.93102 85.6727 3.93102C85.8706 3.93102 86.0622 3.93733 86.2442 3.94891C86.4263 3.96049 86.6211 3.97838 86.8275 4.00259V0.142086C86.5099 0.0947245 86.1924 0.0589424 85.8748 0.0357878C85.5573 0.0115807 85.208 6.28294e-07 84.8269 6.28294e-07C83.4054 6.28294e-07 82.203 0.246284 81.2186 0.739898C80.2342 1.23351 79.4858 1.93552 78.9735 2.84802C78.4612 3.75946 78.2051 4.84352 78.2051 6.09913V6.34751H76.2998V10.2554H78.2051V19.3741H83.2307V10.2554H86.2442V9.97857L89.3879 19.3741H90.7693L88.9942 24.5849H93.9246L100.058 6.34751H95.1037L95.1059 6.34646Z" fill="white"/>
<path d="M42.6186 3.18483C41.2214 2.1355 39.1087 1.61032 36.2825 1.61032C35.1944 1.61032 34.1645 1.66399 33.1918 1.77029C32.219 1.87659 31.2876 2.02078 30.3984 2.20286V19.3741H35.567V14.7084C35.7893 14.7169 36.0031 14.7242 36.2106 14.7316C36.417 14.74 36.635 14.7432 36.8658 14.7432C39.4146 14.7432 41.3601 14.1906 42.7012 13.0855C44.0433 11.9804 44.7144 10.3459 44.7144 8.18306C44.7144 5.90128 44.0158 4.2352 42.6186 3.18588V3.18483ZM39.2304 6.37069C39.4654 6.4391 39.6803 6.56539 39.8666 6.72432C39.9597 6.80431 40.0401 6.89377 40.1227 6.98323C40.2021 7.06848 40.2815 7.15689 40.2868 7.28213C40.2931 7.44316 40.164 7.56315 40.0084 7.65155C39.4908 7.9452 38.6599 8.11359 38.1582 7.68839C37.8967 7.46737 37.7284 7.13479 37.9115 6.80536C38.0894 6.4854 38.4556 6.32964 38.8017 6.31701C38.9457 6.31175 39.0907 6.32964 39.2294 6.37069H39.2304ZM36.7335 5.62237C36.9504 5.3782 37.2881 5.28874 37.6067 5.30347C37.7676 5.31084 37.9274 5.34346 38.0777 5.40135C38.2238 5.45713 38.4006 5.52133 38.4683 5.675C38.6578 6.10757 37.9994 6.48751 37.6861 6.62328C37.5622 6.67696 37.4109 6.72853 37.2606 6.74958C37.1568 6.76326 37.0531 6.76221 36.961 6.73695C36.7716 6.68432 36.6191 6.55803 36.5429 6.37595C36.4307 6.10967 36.5546 5.82445 36.7345 5.62237H36.7335ZM36.3196 10.1038C36.0867 10.2459 35.7903 10.2785 35.531 10.1933C34.9277 9.99648 34.7869 9.28606 34.9065 8.73666C34.9097 8.72298 34.9129 8.71035 34.915 8.69667C34.9859 8.38618 35.0822 8.07676 34.9129 7.77259C34.7573 7.49263 34.788 7.11163 34.897 6.8222C35.0166 6.5033 35.3034 6.28859 35.6485 6.26333C35.8814 6.24544 36.1153 6.31701 36.3069 6.44752C36.5101 6.58539 36.6551 6.79905 36.8467 6.95271C37.1473 7.19478 37.5824 7.31476 37.7824 7.65998C37.9444 7.93994 37.9624 8.29883 37.8322 8.59353C37.7993 8.66825 37.757 8.73877 37.7051 8.80192C37.4839 9.07451 37.1346 9.20712 36.888 9.45235C36.6816 9.65864 36.5757 9.94701 36.3185 10.1038H36.3196ZM38.7319 10.4385C38.7107 10.6269 38.4884 10.7458 38.3318 10.8143C38.0248 10.949 37.6692 11.0248 37.3368 10.9427C37.0923 10.8827 36.8647 10.7332 36.7324 10.5175C36.5906 10.287 36.6509 10.0017 36.8181 9.80177C37.2119 9.32921 37.8935 9.54918 38.3371 9.86282C38.3857 9.89755 38.4323 9.93333 38.4747 9.96912C38.6048 10.0796 38.7509 10.2554 38.7308 10.4375L38.7319 10.4385ZM40.291 8.79244C40.2222 9.05135 40.0052 9.3029 39.8083 9.47761C39.6443 9.62285 39.4622 9.74494 39.2484 9.80388C38.7763 9.93333 38.0693 9.74705 37.9751 9.19555C37.9369 8.96926 38.0428 8.74613 38.2069 8.59247C38.2968 8.50827 38.4122 8.45039 38.5339 8.41039C38.6461 8.37356 38.7647 8.35146 38.8758 8.33672C39.1733 8.29883 39.495 8.29778 39.7935 8.32725C40.0158 8.34935 40.3164 8.41355 40.3069 8.69351C40.3058 8.72719 40.3005 8.75982 40.2921 8.79244H40.291Z" fill="white"/>
<path d="M24.1804 13.447C23.462 13.0689 22.6806 12.8382 21.8789 12.7365C21.8507 9.95389 20.3318 7.26254 18.969 5.40226L18.9637 5.39509C18.3954 4.67288 16.4393 2.35371 15.1216 2.83084C14.4536 3.07267 14.139 3.92394 14.1619 5.42963C14.0203 5.39313 13.8774 5.35859 13.7345 5.3273C13.2776 5.22757 12.8142 5.15587 12.3474 5.11807C11.7778 5.07179 11.2029 5.0757 10.6352 5.14218C10.801 3.75381 10.5906 2.93122 9.99339 2.63204C8.86784 2.06756 6.89796 3.75642 5.82486 4.81432L5.8183 4.82084C4.15325 6.584 2.20304 9.23689 1.97098 12.1622C1.3456 12.1505 0.718908 12.2242 0.115818 12.3897C-0.0873976 12.4451 -0.000867099 12.76 0.203004 12.7039C0.774629 12.5475 1.3633 12.4803 1.95197 12.4895C1.95197 12.5064 1.95066 12.5234 1.95 12.5403C1.95 12.5527 1.94934 12.5644 1.94869 12.5768C1.93689 13.0689 1.97688 13.5441 2.06734 14.0004C2.04374 14.0095 2.02014 14.018 1.9972 14.0271C1.4282 14.2559 0.91229 14.587 0.465872 15.0061C0.312477 15.1508 0.544537 15.3809 0.697932 15.2369C1.11944 14.8406 1.61043 14.5349 2.14142 14.325C2.55112 15.9148 3.60194 17.2621 5.24733 18.2828C7.13199 19.4515 9.60991 20.0434 12.0747 20.0434C14.2799 20.0434 16.4747 19.5695 18.2249 18.6107C19.9496 17.6655 21.0876 16.3593 21.5885 14.7734C21.6527 14.8125 21.717 14.8523 21.7805 14.8947C22.2545 15.2114 22.6622 15.6227 22.9821 16.0927C23.0995 16.2654 23.384 16.1025 23.2653 15.9284C22.8504 15.3177 22.3089 14.821 21.6802 14.4547C21.7301 14.2611 21.77 14.0636 21.8015 13.8622H21.8068C21.8297 13.7038 21.8454 13.5441 21.8579 13.3851C21.8605 13.3564 21.8631 13.3277 21.8651 13.299C21.8671 13.271 21.8684 13.2423 21.8697 13.2143C21.8723 13.1641 21.8756 13.1132 21.8769 13.0624C21.9785 13.0761 22.0801 13.0911 22.1811 13.1087C22.8209 13.2221 23.441 13.4261 24.0153 13.7292C24.2014 13.8276 24.3673 13.5454 24.1804 13.447ZM18.8614 13.709C18.7297 13.7077 18.596 13.7084 18.4649 13.722C18.377 13.7312 18.301 13.7905 18.301 13.885C18.301 13.9658 18.3764 14.0571 18.4649 14.048C18.8261 14.0108 19.201 14.0388 19.5596 14.0845C19.5675 14.0851 19.5707 14.0858 19.5734 14.0864C19.5753 14.0864 19.5793 14.0871 19.5878 14.0884C19.6074 14.091 19.6265 14.0942 19.6461 14.0968C19.6907 14.1034 19.7353 14.1105 19.7799 14.1183C19.871 14.134 19.9621 14.1522 20.0519 14.1718C20.242 14.2142 20.4301 14.2657 20.615 14.3269C20.7861 14.3836 20.9533 14.4501 21.1165 14.5244C20.5678 16.3632 19.1787 17.4935 17.9732 18.1544C14.4182 20.102 8.95044 19.9638 5.52593 17.8402C4.38858 17.135 3.09915 15.9669 2.6429 14.1594C2.84218 14.1053 3.04474 14.0636 3.25058 14.0356C3.61702 13.986 4.00378 13.9776 4.37809 14.0023C4.45938 14.0075 4.54001 14.0147 4.6213 14.0232C4.65801 14.0271 4.69472 14.0317 4.73143 14.0362C4.74061 14.0375 4.75044 14.0388 4.75962 14.0401C4.77928 14.0427 4.79895 14.0453 4.81861 14.0486C4.94054 14.0669 5.06182 14.0884 5.18244 14.1138C5.30568 14.1399 5.43023 14.1685 5.55019 14.2083C5.75078 14.2748 5.83666 13.96 5.63738 13.8941C5.27093 13.7722 4.87237 13.7181 4.48954 13.6855C3.84974 13.6314 3.1942 13.6758 2.57145 13.8394C2.51179 13.5232 2.47705 13.1882 2.47246 12.8336C2.47115 12.7587 2.4718 12.683 2.47312 12.6081C2.47312 12.5801 2.47443 12.552 2.47574 12.5234C2.47574 12.5214 2.47574 12.5194 2.47574 12.5168C2.80613 12.5468 3.1352 12.5996 3.45969 12.6733C4.21093 12.844 4.91039 13.1041 5.581 13.4587C5.70817 13.5258 5.83534 13.5949 5.95531 13.6732C6.1323 13.7885 6.29684 13.5063 6.1205 13.3916C5.75603 13.1543 5.3496 12.9712 4.94841 12.8056C4.16767 12.4842 3.33776 12.2665 2.49475 12.1896C2.7196 9.42071 4.59508 6.87797 6.19786 5.18064C7.77966 3.62345 9.17725 2.80542 9.75806 3.09678C10.137 3.28711 10.2556 4.04126 10.0963 5.22496C10.0937 5.22496 10.0917 5.22562 10.0891 5.22627C9.61581 5.31817 9.14841 5.45636 8.71051 5.65777C8.55319 5.73012 8.40438 5.84745 8.2464 5.91067C8.34407 5.87157 8.4424 5.83506 8.54204 5.80182C9.43488 5.50199 10.392 5.42572 11.3294 5.46939C12.1272 5.50655 12.9204 5.63105 13.6965 5.81812C14.0511 5.9035 14.3933 6.03387 14.7454 6.12317C14.8555 6.15119 14.9813 6.14924 15.0712 6.07037C15.1406 6.0091 15.1728 5.90481 15.1361 5.81942C15.0974 5.72882 14.9925 5.6695 14.902 5.64147C14.8319 5.61996 14.7617 5.5978 14.6916 5.57629C14.6523 4.27787 14.8693 3.47679 15.3026 3.3197C16.0315 3.05572 17.496 4.37369 18.5494 5.71187C19.8559 7.49524 21.3105 10.0614 21.3564 12.687C21.2004 12.6778 21.0444 12.6733 20.8884 12.6733C20.0952 12.6739 19.2954 12.7828 18.5311 12.992C18.3868 13.0318 18.242 13.0728 18.1017 13.1256C18.0191 13.1569 17.9621 13.2358 17.987 13.3264C18.0086 13.4053 18.1056 13.4717 18.1889 13.4405C18.5776 13.2945 18.9939 13.2038 19.4016 13.1315C20.0368 13.0187 20.6989 12.9725 21.3544 13.0116C21.3531 13.0663 21.3512 13.1204 21.3479 13.1752C21.3446 13.2299 21.3413 13.284 21.3374 13.3375C21.3361 13.357 21.3341 13.3766 21.3328 13.3968C21.3072 13.6803 21.262 13.9502 21.2017 14.207C21.1027 14.1627 21.0031 14.1203 20.9008 14.0825C20.2538 13.8394 19.5543 13.7162 18.8634 13.709H18.8614Z" fill="white"/>
<path d="M13.6038 4.75565C13.6038 4.75565 13.9617 2.43453 15.1443 1.13612C15.1443 1.13612 14.0155 1.60347 13.223 2.84322L12.7569 0L11.8188 2.80672C11.8188 2.80672 11.3855 2.06235 10.2613 1.80032C10.2613 1.80032 11.2446 3.06289 11.2419 4.64224C11.2419 4.64224 12.4724 4.37499 13.6038 4.75696V4.75565Z" fill="white"/>
<path d="M13.8663 14.0206C13.7594 14.4325 13.3714 14.6379 12.9728 14.6737C12.5434 14.7128 12.0859 14.5948 11.8433 14.2129C11.6912 13.9743 11.6401 13.6816 11.6506 13.4007C11.6552 13.3988 11.6604 13.3968 11.6644 13.3955C11.7378 13.3714 11.8099 13.346 11.8813 13.3179C12.0229 13.2625 12.1612 13.1993 12.2956 13.1276C12.5893 12.9718 13.058 12.7248 12.8083 12.3226C12.7807 12.2783 12.746 12.2385 12.7067 12.204C12.4988 12.0202 12.1927 12.0045 11.9279 11.9954C11.5483 11.983 11.1675 12.0123 10.7899 12.0482C10.4896 12.0769 10.0491 12.1988 10.1075 12.5892C10.1186 12.6629 10.1507 12.7332 10.1986 12.79C10.4595 13.1015 10.8731 13.3121 11.275 13.4203C11.2219 13.885 10.9682 14.3452 10.4929 14.4814C10.1075 14.5922 9.6263 14.4984 9.30968 14.2592C9.13072 14.1236 9.0101 13.93 8.98847 13.7051C8.97994 13.6178 8.91898 13.5422 8.82458 13.5422C8.74264 13.5422 8.65218 13.6171 8.6607 13.7051C8.68692 13.9769 8.79574 14.2246 8.99371 14.4169C9.17988 14.5968 9.42243 14.7167 9.67153 14.7839C10.2117 14.9286 10.8253 14.8412 11.2055 14.4026C11.292 14.3028 11.3628 14.1907 11.4211 14.0727C11.5391 14.4084 11.7633 14.6998 12.1042 14.8588C12.5755 15.0791 13.2003 15.0602 13.6526 14.7976C13.9161 14.6444 14.1056 14.3999 14.1823 14.106C14.2347 13.9026 13.9187 13.8159 13.8663 14.0193V14.0206Z" fill="white"/>
<path d="M16.5998 10.7015C16.0786 10.3117 15.3556 10.2863 14.7754 10.5555C14.4627 10.7009 14.1336 10.9459 13.977 11.2595C13.9632 11.2868 13.9507 11.3155 13.9396 11.3442C13.84 11.6108 14.1795 11.4589 14.2923 11.3983C14.8259 11.1122 15.5286 11.0235 16.1166 11.1708C16.4555 11.2556 16.6955 11.4498 16.9347 11.6916C16.9898 11.747 17.0966 11.8389 17.1353 11.7236C17.1694 11.6225 17.1288 11.4935 17.0986 11.3976C17.0121 11.1206 16.8318 10.8755 16.5998 10.7015Z" fill="white"/>
<path d="M9.26194 11.4811C9.25342 11.4511 9.24359 11.4218 9.23244 11.3931C9.10396 11.0678 8.79717 10.7947 8.49825 10.6233C7.94367 10.3046 7.22127 10.2681 6.668 10.6116C6.42152 10.7647 6.22027 10.9935 6.10948 11.2621C6.07146 11.3553 6.01968 11.4804 6.04459 11.5841C6.07343 11.7027 6.18749 11.6199 6.2478 11.5697C6.50739 11.3501 6.7637 11.1773 7.10852 11.1213C7.70702 11.0248 8.39926 11.1734 8.90599 11.5045C9.0135 11.5749 9.33798 11.7548 9.26194 11.4811Z" fill="white"/>
</svg>
