<svg width="42" height="23" viewBox="0 0 42 23" fill="none" xmlns="http://www.w3.org/2000/svg">
<path d="M1.5293 9.73238C0.684664 9.73238 -4.59863e-05 10.4171 -4.6134e-05 11.2617C-4.62817e-05 12.1064 0.684664 12.7911 1.5293 12.7911L1.5293 11.2617L1.5293 9.73238ZM40.8443 12.3431C41.4415 11.7459 41.4415 10.7776 40.8443 10.1803L31.1116 0.447636C30.5144 -0.14961 29.546 -0.14961 28.9488 0.447636C28.3515 1.04488 28.3515 2.01321 28.9488 2.61045L37.6001 11.2617L28.9488 19.913C28.3515 20.5102 28.3515 21.4786 28.9488 22.0758C29.546 22.6731 30.5144 22.6731 31.1116 22.0758L40.8443 12.3431ZM1.5293 11.2617L1.5293 12.7911L39.7629 12.7911L39.7629 11.2617L39.7629 9.73238L1.5293 9.73238L1.5293 11.2617Z" fill="white"/>
</svg>
