<svg width="42" height="23" viewBox="0 0 42 23" fill="none" xmlns="http://www.w3.org/2000/svg">
<path d="M40.1338 12.9108C40.9863 12.9108 41.6774 12.2197 41.6774 11.3672C41.6774 10.5147 40.9863 9.82358 40.1338 9.82358V11.3672V12.9108ZM0.452057 10.2757C-0.150761 10.8785 -0.150761 11.8559 0.452057 12.4587L10.2755 22.2822C10.8783 22.885 11.8557 22.885 12.4585 22.2822C13.0613 21.6793 13.0613 20.702 12.4585 20.0992L3.72655 11.3672L12.4585 2.63521C13.0613 2.0324 13.0613 1.05504 12.4585 0.45222C11.8557 -0.150597 10.8783 -0.150597 10.2755 0.45222L0.452057 10.2757ZM40.1338 11.3672V9.82358L1.54355 9.82358V11.3672V12.9108L40.1338 12.9108V11.3672Z" fill="white"/>
</svg>
