<svg width="25" height="25" viewBox="0 0 25 25" fill="none" xmlns="http://www.w3.org/2000/svg">
<path d="M8.6663 15.9821C9.62612 15.9821 10.4074 15.6417 10.4074 14.5647C10.4074 13.4654 9.75446 13.0357 8.71652 13.0301H6.14955V15.9821H8.6663ZM8.36495 8.75H6.15513V11.25H8.53795C9.38058 11.25 9.97768 10.8817 9.97768 9.9721C9.97768 8.98438 9.21317 8.75 8.36495 8.75ZM15.5915 12.9241H19.0625C18.9676 11.8917 18.4319 11.2667 17.3605 11.2667C16.3393 11.2667 15.6585 11.9029 15.5915 12.9241ZM21.4286 0H3.57143C1.60156 0 0 1.60156 0 3.57143V21.4286C0 23.3984 1.60156 25 3.57143 25H21.4286C23.3984 25 25 23.3984 25 21.4286V3.57143C25 1.60156 23.3984 0 21.4286 0ZM19.5033 8.53795H15.1618V7.48326H19.5033V8.53795ZM10.8092 11.8136C12.1261 12.1875 12.7623 13.3482 12.7623 14.6931C12.7623 16.8694 10.9375 17.8013 8.98996 17.8125H3.79464V7.09821H8.84487C10.6808 7.09821 12.2712 7.61719 12.2712 9.74888C12.2712 10.8259 11.769 11.356 10.8092 11.8136ZM17.433 9.6596C19.8605 9.6596 21.2054 11.5737 21.2054 13.8672C21.2054 13.9565 21.1998 14.0513 21.1942 14.1462C21.1942 14.1908 21.1886 14.2299 21.1886 14.269H15.5971C15.5971 15.5078 16.25 16.2388 17.5 16.2388C18.1473 16.2388 18.9788 15.8929 19.1853 15.2288H21.0658C20.4855 17.0089 19.2857 17.8404 17.433 17.8404C14.9888 17.8404 13.4654 16.183 13.4654 13.7667C13.4654 11.4342 15.067 9.6596 17.433 9.6596Z" fill="currentColor"/>
</svg>
