<svg width="23" height="15" viewBox="0 0 23 15" fill="none" xmlns="http://www.w3.org/2000/svg">
<path d="M1 6.36401C0.447715 6.36401 0 6.81173 0 7.36401C0 7.9163 0.447715 8.36401 1 8.36401L1 7.36401L1 6.36401ZM22.7071 8.07112C23.0976 7.6806 23.0976 7.04743 22.7071 6.65691L16.3431 0.292946C15.9526 -0.0975785 15.3195 -0.0975785 14.9289 0.292946C14.5384 0.68347 14.5384 1.31664 14.9289 1.70716L20.5858 7.36401L14.9289 13.0209C14.5384 13.4114 14.5384 14.0446 14.9289 14.4351C15.3195 14.8256 15.9526 14.8256 16.3431 14.4351L22.7071 8.07112ZM1 7.36401L1 8.36401L22 8.36401V7.36401V6.36401L1 6.36401L1 7.36401Z" fill="currentColor"/>
</svg>
