<svg width="25" height="25" viewBox="0 0 25 25" fill="none" xmlns="http://www.w3.org/2000/svg">
<path d="M25 3.57143C25 1.60156 23.3984 0 21.4286 0H3.57143C1.60156 0 0 1.60156 0 3.57143V21.4286C0 23.3984 1.60156 25 3.57143 25H21.4286C23.3984 25 25 23.3984 25 21.4286V3.57143ZM14.8326 20.9654C14.8326 20.865 14.8326 20.6306 14.8382 20.3181C14.8437 19.6819 14.8438 18.7109 14.8438 17.8795C14.8438 17.0089 14.5536 16.4565 14.2132 16.1663C16.2779 15.9375 18.4542 15.6529 18.4542 12.0871C18.4542 11.0714 18.0915 10.5636 17.5 9.91071C17.5949 9.67076 17.9129 8.68304 17.4051 7.39955C16.6295 7.1596 14.8549 8.39844 14.8549 8.39844C13.3705 7.97991 11.6964 7.97991 10.2121 8.39844C10.2121 8.39844 8.4375 7.1596 7.66183 7.39955C7.15402 8.67746 7.46652 9.66518 7.56696 9.91071C6.97545 10.5636 6.69643 11.0714 6.69643 12.0871C6.69643 15.6362 8.7779 15.9375 10.8426 16.1663C10.5748 16.4063 10.3348 16.8192 10.2511 17.4107C9.72098 17.6507 8.36496 18.0636 7.5558 16.635C7.04799 15.7533 6.13281 15.6808 6.13281 15.6808C5.22879 15.6696 6.07143 16.25 6.07143 16.25C6.67411 16.529 7.09821 17.6004 7.09821 17.6004C7.63951 19.2578 10.2288 18.6998 10.2288 18.6998C10.2288 19.202 10.2344 19.9107 10.2344 20.4074C10.2344 20.6752 10.24 20.8873 10.24 20.9654C10.24 21.2054 10.0725 21.4955 9.59821 21.4118C5.91518 20.1786 3.33705 16.6741 3.33705 12.5781C3.33705 7.45536 7.25446 3.56585 12.3772 3.56585C17.5 3.56585 21.6518 7.45536 21.6518 12.5781C21.6574 16.6741 19.1574 20.1842 15.4743 21.4118C15.0056 21.4955 14.8326 21.2054 14.8326 20.9654ZM9.78236 17.9074C9.7712 17.8237 9.84375 17.7511 9.94978 17.7288C10.0558 17.7176 10.1563 17.7623 10.1674 17.8348C10.1842 17.9074 10.1116 17.9799 10 18.0022C9.89397 18.0246 9.79353 17.9799 9.78236 17.9074ZM9.27455 18.0859C9.15179 18.0971 9.06808 18.0357 9.06808 17.952C9.06808 17.8795 9.15179 17.8181 9.26339 17.8181C9.36942 17.8069 9.46987 17.8683 9.46987 17.952C9.46987 18.0246 9.38616 18.0859 9.27455 18.0859ZM8.47656 17.9632C8.37054 17.9408 8.29799 17.8571 8.32031 17.7846C8.34263 17.7121 8.45424 17.6786 8.54911 17.7009C8.66071 17.7344 8.73326 17.8181 8.70536 17.8906C8.68304 17.9632 8.57143 17.9967 8.47656 17.9632ZM7.77902 17.5558C7.69531 17.4833 7.67299 17.3772 7.72879 17.327C7.77902 17.2656 7.88504 17.2768 7.96875 17.3605C8.04129 17.433 8.0692 17.5446 8.01897 17.5893C7.96875 17.6507 7.86272 17.6395 7.77902 17.5558ZM7.30469 16.9978C7.2433 16.9141 7.2433 16.8192 7.30469 16.7801C7.36607 16.7299 7.46094 16.769 7.51116 16.8527C7.57254 16.9364 7.57254 17.0368 7.51116 17.0815C7.46094 17.115 7.36607 17.0815 7.30469 16.9978ZM6.95313 16.5067C6.89174 16.4342 6.88058 16.3504 6.9308 16.3114C6.98103 16.2612 7.06473 16.2891 7.12612 16.3449C7.1875 16.4174 7.19866 16.5011 7.14844 16.5402C7.09821 16.5904 7.01451 16.5625 6.95313 16.5067ZM6.6183 16.1496C6.54576 16.1161 6.51228 16.0547 6.5346 16.0045C6.55692 15.971 6.6183 15.9542 6.69085 15.9821C6.76339 16.0212 6.79687 16.0826 6.77455 16.1272C6.75223 16.1775 6.67969 16.1886 6.6183 16.1496Z" fill="currentColor"/>
</svg>
