<svg width="25" height="25" viewBox="0 0 25 25" fill="none" xmlns="http://www.w3.org/2000/svg">
<path d="M7.66992 17.6582C7.67061 17.6594 7.67216 17.66 7.67285 17.6611L7.71484 17.6191C7.7138 17.6182 7.71296 17.6171 7.71191 17.6162M7.66992 17.6582L7.71191 17.6162M7.66992 17.6582L7.71191 17.6162M7.66992 17.6582C7.65359 17.6307 7.639 17.6019 7.625 17.5723C7.63355 17.5699 7.64179 17.5663 7.65039 17.5635C7.67038 17.582 7.69164 17.5987 7.71191 17.6162M3.57129 0.5H21.4287C23.1223 0.500076 24.4999 1.87768 24.5 3.57129V21.4287C24.4999 23.1223 23.1223 24.4999 21.4287 24.5H3.57129C1.87768 24.4999 0.500076 23.1223 0.5 21.4287V3.57129C0.500076 1.87768 1.87768 0.500076 3.57129 0.5ZM12.377 3.06543C6.98022 3.06557 2.83691 7.17728 2.83691 12.5781C2.83691 16.8873 5.55092 20.5836 9.43945 21.8857L9.47461 21.8975L9.51172 21.9043C9.86029 21.9657 10.1904 21.9011 10.4336 21.6797C10.6624 21.4714 10.7401 21.1908 10.7402 20.9658C10.7402 20.9219 10.7386 20.8408 10.7373 20.75C10.7359 20.655 10.7344 20.5376 10.7344 20.4072L10.7285 18.7002V18.0801L10.6133 18.1045C10.6567 18.0106 10.6802 17.8989 10.6621 17.7734L10.708 17.7529L10.7461 17.4805C10.8159 16.9877 11.0088 16.6889 11.1758 16.5391L12.0088 15.793L10.8975 15.6689C9.84054 15.5518 8.93895 15.424 8.2832 14.9629C7.68016 14.5387 7.19629 13.7584 7.19629 12.0869C7.1963 11.6268 7.25902 11.3167 7.36914 11.0596C7.48105 10.7983 7.65685 10.5559 7.9375 10.2461L8.14941 10.0127L8.0293 9.72168C7.96737 9.57031 7.73081 8.85509 8.02344 7.88281C8.08383 7.89264 8.15718 7.90758 8.24414 7.93359C8.47762 8.00344 8.74135 8.12011 8.99805 8.25293C9.25211 8.38439 9.48551 8.52432 9.65625 8.63184C9.74118 8.68532 9.80962 8.73046 9.85645 8.76172C9.87985 8.77734 9.89839 8.78883 9.91016 8.79688C9.91601 8.80088 9.92015 8.80477 9.92285 8.80664L9.92578 8.80859L10.1201 8.94434L10.3477 8.87988C11.7432 8.48641 13.3232 8.48648 14.7188 8.87988L14.9473 8.94434L15.1416 8.80859C15.1421 8.80823 15.1432 8.80757 15.1445 8.80664C15.1472 8.80477 15.1513 8.8009 15.1572 8.79688C15.1689 8.78887 15.1869 8.77714 15.21 8.76172C15.2568 8.73045 15.3261 8.68536 15.4111 8.63184C15.5819 8.52434 15.8154 8.38433 16.0693 8.25293C16.3258 8.12027 16.589 8.00342 16.8223 7.93359C16.9085 7.90779 16.9819 7.89267 17.042 7.88281C17.3339 8.85783 17.0957 9.57328 17.0352 9.72656L16.9209 10.0156L17.1299 10.2461C17.421 10.5674 17.6182 10.8145 17.75 11.083C17.8764 11.3406 17.9541 11.6444 17.9541 12.0869C17.9541 13.7593 17.4524 14.5396 16.8271 14.9648C16.1457 15.4282 15.2171 15.5516 14.1582 15.6689L13.0088 15.7969L13.8887 16.5469C14.093 16.7211 14.3438 17.12 14.3438 17.8799C14.3437 18.7104 14.3434 19.6762 14.3379 20.3096C14.3322 20.6263 14.333 20.8644 14.333 20.9658C14.3331 21.1951 14.4144 21.4744 14.6426 21.6807C14.8851 21.9 15.2141 21.9665 15.5625 21.9043L15.5977 21.8975L15.6328 21.8857C19.5286 20.5869 22.1572 16.8792 22.1514 12.5771C22.1508 7.16013 17.7566 3.06543 12.377 3.06543ZM9.33887 18.1484C9.35953 18.1917 9.38537 18.2296 9.41309 18.2637C9.41193 18.2645 9.41129 18.2668 9.41016 18.2676C9.39772 18.2763 9.38483 18.2821 9.37305 18.2881C9.34637 18.2887 9.31934 18.288 9.29199 18.2881L9.28027 18.1514C9.29994 18.1506 9.31942 18.1496 9.33887 18.1484ZM9.27441 18.2881C9.23969 18.2881 9.20451 18.289 9.16895 18.2881C9.15871 18.2831 9.14796 18.278 9.1377 18.2715C9.12161 18.2612 9.10268 18.246 9.08301 18.2266C9.10059 18.204 9.11698 18.1799 9.13184 18.1533C9.17995 18.1543 9.22742 18.154 9.27441 18.1523V18.2881ZM10.002 18.2256C9.98046 18.2278 9.94937 18.225 9.90918 18.2109C9.93362 18.1607 9.95347 18.1054 9.96289 18.0439C9.96947 18.0421 9.97591 18.0399 9.98242 18.0381L10.002 18.2256ZM10.2773 17.9385C10.266 18.026 10.2257 18.0965 10.1836 18.1406C10.1317 18.1949 10.0795 18.2121 10.0527 18.2178L10.0127 18.0303C10.1097 18.0017 10.198 17.9691 10.2773 17.9385ZM8.58203 18.0791C8.58807 18.1081 8.59564 18.1361 8.60547 18.1631C8.59033 18.1707 8.5785 18.1769 8.57031 18.1797C8.52143 18.1965 8.47676 18.1974 8.43457 18.1875L8.46777 18.0459C8.50574 18.0582 8.5439 18.069 8.58203 18.0791ZM8.31836 17.9902C8.36117 18.0077 8.4041 18.0236 8.44727 18.0381L8.43555 18.0781L8.40039 18.1758C8.39782 18.175 8.39514 18.1746 8.39258 18.1738C8.37009 18.1649 8.333 18.1459 8.2959 18.1016C8.28332 18.0865 8.26901 18.064 8.25488 18.0361C8.27678 18.0227 8.29761 18.0072 8.31836 17.9902ZM7.71973 17.624C7.7545 17.6538 7.78967 17.682 7.8252 17.709C7.82052 17.7349 7.81856 17.7603 7.81738 17.7852C7.8013 17.7853 7.78623 17.7869 7.77246 17.7852C7.76676 17.7844 7.76125 17.7822 7.75586 17.7812C7.72755 17.7468 7.7025 17.7096 7.67871 17.6709L7.71973 17.624Z" fill="currentColor"/>
</svg>
