<svg width="25" height="25" viewBox="0 0 25 25" fill="none" xmlns="http://www.w3.org/2000/svg">
<path d="M3.57143 0C1.60156 0 0 1.60156 0 3.57143V21.4286C0 23.3984 1.60156 25 3.57143 25H21.4286C23.3984 25 25 23.3984 25 21.4286V3.57143C25 1.60156 23.3984 0 21.4286 0H3.57143ZM3.85045 9.49777H7.56138V21.4286H3.85045V9.49777ZM7.85156 5.71987C7.85156 6.90848 6.89174 7.8683 5.70312 7.8683C4.51451 7.8683 3.55469 6.90848 3.55469 5.71987C3.55469 4.53125 4.51451 3.57143 5.70312 3.57143C6.89174 3.57143 7.85156 4.53125 7.85156 5.71987ZM17.74 21.4286V15.625C17.74 14.2411 17.7121 12.4609 15.8147 12.4609C13.8839 12.4609 13.5882 13.9676 13.5882 15.5246V21.4286H9.88281V9.49777H13.4375V11.1272H13.4877C13.9844 10.1897 15.1953 9.20201 16.9978 9.20201C20.7478 9.20201 21.4453 11.6741 21.4453 14.8884V21.4286H17.74Z" fill="currentColor"/>
</svg>
