<svg width="38" height="38" viewBox="0 0 38 38" fill="none" xmlns="http://www.w3.org/2000/svg">
<g clip-path="url(#clip0_20_890)">
<path d="M36.1668 30.0972H34.3628V35.4078H32.5589V31.8751H30.7432V37.1857H36.1668V30.0972Z" fill="#00B5FF"/>
<path d="M34.3635 23.0203H32.5596V30.0972H34.3635V23.0203Z" fill="#00B5FF"/>
<path d="M30.7434 26.553H28.9395V31.8752H30.7434V26.553Z" fill="#00B5FF"/>
<path d="M28.9394 19.4761H30.7433V23.0203H32.5591V17.7097H30.7433V8.85487H32.5591V1.76633H19.8961V0H18.0922V1.76633H5.42925V8.85487H7.2391V3.54427H27.1414V8.85487H25.3256V17.7097H23.5217V24.7867H3.62535V17.7097H1.80957V26.553H5.42925V31.8752H7.2391V26.553H9.05487V31.8752H7.2391V35.4079H5.42925V31.8752H3.62535V37.1858H9.04894V33.6416H19.8961V37.1858H25.3197V31.8752H23.5158V35.4079H21.7V31.8752H10.8528V30.0973H21.7V31.8752H23.5158V26.553H25.3197V31.8752H27.1355V26.553H28.9394V19.4761ZM21.7 28.3309H10.8528V26.553H21.7V28.3309Z" fill="#00B5FF"/>
<path d="M23.515 12.3877H21.6992V15.932H23.515V12.3877Z" fill="#00B5FF"/>
<path d="M21.7004 15.9316H19.8965V19.4759H21.7004V15.9316Z" fill="#00B5FF"/>
<path d="M21.7004 10.6211H19.8965V12.3874H21.7004V10.6211Z" fill="#00B5FF"/>
<path d="M21.7004 5.31055H19.8965V7.07687H21.7004V5.31055Z" fill="#00B5FF"/>
<path d="M19.8958 19.4761H10.8525V21.2424H19.8958V19.4761Z" fill="#00B5FF"/>
<path d="M18.0921 12.3877H16.2764V14.1656H18.0921V12.3877Z" fill="#00B5FF"/>
<path d="M16.2766 15.9316H14.4727V17.7096H16.2766V15.9316Z" fill="#00B5FF"/>
<path d="M12.6683 12.3877H10.8525V14.1656H12.6683V12.3877Z" fill="#00B5FF"/>
<path d="M19.896 10.6211V7.07687H18.0921V8.85482H16.2763V5.31055H14.4724V8.85482H12.6685V7.07687H10.8527V8.85482H9.04883V10.6211H19.896Z" fill="#00B5FF"/>
<path d="M10.8527 15.9316H9.04883V19.4759H10.8527V15.9316Z" fill="#00B5FF"/>
<path d="M10.8527 5.31055H9.04883V7.07687H10.8527V5.31055Z" fill="#00B5FF"/>
<path d="M9.04917 10.6211H7.2334V15.9317H9.04917V10.6211Z" fill="#00B5FF"/>
<path d="M5.42891 8.85498H3.625V17.7099H5.42891V8.85498Z" fill="#00B5FF"/>
</g>
<defs>
<clipPath id="clip0_20_890">
<rect width="37.977" height="37.1858" fill="white"/>
</clipPath>
</defs>
</svg>
