<svg width="39" height="38" viewBox="0 0 39 38" fill="none" xmlns="http://www.w3.org/2000/svg">
<path d="M33.2309 11.7489V9.94502H31.3773V11.7489H29.5359V13.5647H35.0724V17.1725H29.5359V18.9883H23.9993V20.7922H18.4627V22.608H12.9261V24.4119H7.3774V26.2158H3.69442V22.608H7.3774V20.7922H3.69442V18.9883H1.84082V37.0748H7.3774V35.2591H3.69442V31.6513H7.3774V29.8355H12.9261V28.0316H18.4627V26.2158H23.9993V24.4119H29.5359V22.608H35.0724V24.4119H33.2309V26.2158H36.926V8.14111H35.0724V11.7489H33.2309Z" fill="#00B5FF"/>
<path d="M35.073 6.32544H31.3779V8.14122H35.073V6.32544Z" fill="#00B5FF"/>
<path d="M33.2303 26.2161H29.5352V28.0318H33.2303V26.2161Z" fill="#00B5FF"/>
<path d="M31.3773 8.14111H27.6943V9.94502H31.3773V8.14111Z" fill="#00B5FF"/>
<path d="M31.3773 4.52148H27.6943V6.32539H31.3773V4.52148Z" fill="#00B5FF"/>
<path d="M29.5366 28.0317H24V29.8356H29.5366V28.0317Z" fill="#00B5FF"/>
<path d="M29.5366 13.5647H24V15.3686H29.5366V13.5647Z" fill="#00B5FF"/>
<path d="M27.6951 6.32544H24V8.14122H27.6951V6.32544Z" fill="#00B5FF"/>
<path d="M27.6951 2.70581H24V4.52159H27.6951V2.70581Z" fill="#00B5FF"/>
<path d="M23.9988 4.52148H20.3037V6.32539H23.9988V4.52148Z" fill="#00B5FF"/>
<path d="M23.9988 0.901855H20.3037V2.70576H23.9988V0.901855Z" fill="#00B5FF"/>
<path d="M23.9995 29.8357H18.4629V31.6515H23.9995V29.8357Z" fill="#00B5FF"/>
<path d="M23.9995 15.3687H18.4629V17.1726H23.9995V15.3687Z" fill="#00B5FF"/>
<path d="M20.3044 2.70581H18.4629V4.52159H20.3044V2.70581Z" fill="#00B5FF"/>
<path d="M18.4624 31.6514H12.9258V33.4553H18.4624V31.6514Z" fill="#00B5FF"/>
<path d="M18.4624 17.1726H12.9258V18.9884H18.4624V17.1726Z" fill="#00B5FF"/>
<path d="M12.9259 4.52159V6.32549H11.0723V11.7491H12.9259V13.5649H18.4625V11.7491H20.3039V6.32549H18.4625V4.52159H16.6088V2.70581H14.7674V4.52159H12.9259ZM16.6088 6.32549V8.14127H18.4625V9.94518H16.6088V8.14127H14.7674V6.32549H16.6088Z" fill="#00B5FF"/>
<path d="M14.7674 0.901855H11.0723V2.70576H14.7674V0.901855Z" fill="#00B5FF"/>
<path d="M12.9266 33.4553H7.37793V35.2592H12.9266V33.4553Z" fill="#00B5FF"/>
<path d="M12.9266 18.9885H7.37793V20.7924H12.9266V18.9885Z" fill="#00B5FF"/>
<path d="M11.0729 11.749H9.23145V13.5648H11.0729V11.749Z" fill="#00B5FF"/>
<path d="M9.23153 13.5647H7.37793V15.3686H9.23153V13.5647Z" fill="#00B5FF"/>
<path d="M7.37762 15.3687H5.53613V17.1726H7.37762V15.3687Z" fill="#00B5FF"/>
<path d="M5.53583 17.1726H3.69434V18.9884H5.53583V17.1726Z" fill="#00B5FF"/>
</svg>
