<svg width="38" height="38" viewBox="0 0 38 38" fill="none" xmlns="http://www.w3.org/2000/svg">
<g clip-path="url(#clip0_20_779)">
<path d="M36.1736 15.3748H34.3578V20.7983H30.75V22.6141H34.3578V24.418H30.75V26.2219H34.3578V28.0377H36.1736V26.2219H37.9775V24.418H36.1736V22.6141H37.9775V20.7983H36.1736V15.3748Z" fill="#00B5FF"/>
<path d="M34.3566 28.0378H32.5527V29.8418H34.3566V28.0378Z" fill="#00B5FF"/>
<path d="M34.3566 11.7551H32.5527V15.3748H34.3566V11.7551Z" fill="#00B5FF"/>
<path d="M32.5539 29.8416H30.75V31.6573H32.5539V29.8416Z" fill="#00B5FF"/>
<path d="M32.5539 8.14746H30.75V11.7553H32.5539V8.14746Z" fill="#00B5FF"/>
<path d="M30.7494 4.52759H28.9336V8.14727H30.7494V4.52759Z" fill="#00B5FF"/>
<path d="M30.7496 31.6575H27.1299V33.4614H30.7496V31.6575Z" fill="#00B5FF"/>
<path d="M28.9338 26.2219H27.1299V28.0377H28.9338V26.2219Z" fill="#00B5FF"/>
<path d="M28.9338 22.6143H27.1299V24.4182H28.9338V22.6143Z" fill="#00B5FF"/>
<path d="M28.9338 2.71191H27.1299V4.52769H28.9338V2.71191Z" fill="#00B5FF"/>
<path d="M27.1291 4.52759H25.3252V6.3315H27.1291V4.52759Z" fill="#00B5FF"/>
<path d="M27.1292 33.4612H10.8584V35.2651H27.1292V33.4612Z" fill="#00B5FF"/>
<path d="M25.3255 9.95117H23.5098V13.5709H25.3255V9.95117Z" fill="#00B5FF"/>
<path d="M25.3255 6.33154H23.5098V8.14732H25.3255V6.33154Z" fill="#00B5FF"/>
<path d="M23.51 17.1787H21.7061V18.9945H23.51V17.1787Z" fill="#00B5FF"/>
<path d="M21.7054 26.2219H19.8896V28.0377H21.7054V26.2219Z" fill="#00B5FF"/>
<path d="M14.4668 20.7983V22.6141H16.2826V24.418H19.8904V22.6141H21.7062V20.7983H14.4668Z" fill="#00B5FF"/>
<path d="M19.89 28.0378H16.2822V29.8418H19.89V28.0378Z" fill="#00B5FF"/>
<path d="M18.0865 9.95137V13.5711H19.8904V9.95137H23.5101V8.14746H14.4668V9.95137H18.0865Z" fill="#00B5FF"/>
<path d="M14.467 17.1787H12.6631V18.9945H14.467V17.1787Z" fill="#00B5FF"/>
<path d="M14.467 9.95117H12.6631V13.5709H14.467V9.95117Z" fill="#00B5FF"/>
<path d="M14.467 6.33154H12.6631V8.14732H14.467V6.33154Z" fill="#00B5FF"/>
<path d="M12.6623 4.52759H10.8584V6.3315H12.6623V4.52759Z" fill="#00B5FF"/>
<path d="M10.8589 31.6575H7.23926V33.4614H10.8589V31.6575Z" fill="#00B5FF"/>
<path d="M10.8587 26.2219H9.04297V28.0377H10.8587V26.2219Z" fill="#00B5FF"/>
<path d="M10.8587 22.6143H9.04297V24.4182H10.8587V22.6143Z" fill="#00B5FF"/>
<path d="M10.8587 2.71191H9.04297V4.52769H10.8587V2.71191Z" fill="#00B5FF"/>
<path d="M9.04317 4.52759H7.23926V8.14727H9.04317V4.52759Z" fill="#00B5FF"/>
<path d="M7.2396 29.8416H5.42383V31.6573H7.2396V29.8416Z" fill="#00B5FF"/>
<path d="M7.2396 8.14746H5.42383V11.7553H7.2396V8.14746Z" fill="#00B5FF"/>
<path d="M5.42403 28.0378H3.62012V29.8418H5.42403V28.0378Z" fill="#00B5FF"/>
<path d="M7.23937 26.2219V24.418H3.61968V22.6141H7.23937V20.7983H3.61968V15.3748H1.81578V20.7983H0V22.6141H1.81578V24.418H0V26.2219H1.81578V28.0377H3.61968V26.2219H7.23937Z" fill="#00B5FF"/>
<path d="M5.42403 11.7551H3.62012V15.3748H5.42403V11.7551Z" fill="#00B5FF"/>
</g>
<defs>
<clipPath id="clip0_20_779">
<rect width="37.977" height="37.977" fill="white"/>
</clipPath>
</defs>
</svg>
