<svg width="38" height="38" viewBox="0 0 38 38" fill="none" xmlns="http://www.w3.org/2000/svg">
<g clip-path="url(#clip0_20_840)">
<path d="M36.1619 9.74382H32.5423V7.96587H28.9344V6.19955H25.3148V4.4216H21.6951V2.65527H18.0754V4.4216H16.2715V9.74382H21.6951V11.5101H25.3148V13.2765H28.9344V15.0544H32.5423V16.8207H34.358V15.0544H36.1619V20.365H37.9777V11.5101H36.1619V9.74382Z" fill="#00B5FF"/>
<path d="M36.1607 20.365H32.541V22.1313H36.1607V20.365Z" fill="#00B5FF"/>
<path d="M32.5414 22.1313H28.9336V23.9093H32.5414V22.1313Z" fill="#00B5FF"/>
<path d="M32.5414 16.8208H28.9336V18.5871H32.5414V16.8208Z" fill="#00B5FF"/>
<path d="M28.9341 23.9094H25.3145V25.6757H28.9341V23.9094Z" fill="#00B5FF"/>
<path d="M28.9341 18.5872H25.3145V20.3651H28.9341V18.5872Z" fill="#00B5FF"/>
<path d="M25.314 15.0544H21.6943V18.5871H25.314V15.0544Z" fill="#00B5FF"/>
<path d="M25.314 25.6758H21.6943V27.4421H25.314V25.6758Z" fill="#00B5FF"/>
<path d="M25.314 20.365H21.6943V22.1313H25.314V20.365Z" fill="#00B5FF"/>
<path d="M21.6939 27.4419H18.0742V29.2198H21.6939V27.4419Z" fill="#00B5FF"/>
<path d="M21.6939 22.1313H18.0742V23.9093H21.6939V22.1313Z" fill="#00B5FF"/>
<path d="M19.89 16.8208H18.0742V18.5871H19.89V16.8208Z" fill="#00B5FF"/>
<path d="M19.8912 11.5103H16.2715V15.0545H19.8912V11.5103Z" fill="#00B5FF"/>
<path d="M18.0746 29.22H14.4668V30.9863H18.0746V29.22Z" fill="#00B5FF"/>
<path d="M18.0746 23.9094H14.4668V25.6757H18.0746V23.9094Z" fill="#00B5FF"/>
<path d="M16.2711 16.8208H12.6514V20.3651H16.2711V16.8208Z" fill="#00B5FF"/>
<path d="M16.2707 9.7439H14.4668V11.5102H16.2707V9.7439Z" fill="#00B5FF"/>
<path d="M14.4671 22.1313H12.6514V23.9093H14.4671V22.1313Z" fill="#00B5FF"/>
<path d="M14.4671 11.5103H12.6514V13.2766H14.4671V11.5103Z" fill="#00B5FF"/>
<path d="M14.4664 30.9863H10.8467V32.7643H14.4664V30.9863Z" fill="#00B5FF"/>
<path d="M14.4664 25.6758H10.8467V27.4421H14.4664V25.6758Z" fill="#00B5FF"/>
<path d="M12.6506 13.2764H10.8467V15.0543H12.6506V13.2764Z" fill="#00B5FF"/>
<path d="M10.8472 22.1313H7.22754V25.6756H10.8472V22.1313Z" fill="#00B5FF"/>
<path d="M10.847 18.5872H9.03125V20.3651H10.847V18.5872Z" fill="#00B5FF"/>
<path d="M10.847 15.0544H9.03125V16.8208H10.847V15.0544Z" fill="#00B5FF"/>
<path d="M10.8468 32.7644H3.60742V34.5307H10.8468V32.7644Z" fill="#00B5FF"/>
<path d="M10.8472 27.4419H7.22754V29.2198H10.8472V27.4419Z" fill="#00B5FF"/>
<path d="M9.03145 16.8208H7.22754V18.5871H9.03145V16.8208Z" fill="#00B5FF"/>
<path d="M7.22774 18.5872H5.42383V20.3651H7.22774V18.5872Z" fill="#00B5FF"/>
<path d="M7.2273 30.9863V29.22H1.80371V32.7642H3.60762V30.9863H7.2273Z" fill="#00B5FF"/>
<path d="M5.4232 23.9094H3.60742V25.6757H5.4232V23.9094Z" fill="#00B5FF"/>
<path d="M5.4232 20.365H3.60742V22.1313H5.4232V20.365Z" fill="#00B5FF"/>
<path d="M3.60762 22.1313H1.80371V23.9093H3.60762V22.1313Z" fill="#00B5FF"/>
<path d="M1.80391 23.9094H0V29.22H1.80391V23.9094Z" fill="#00B5FF"/>
</g>
<defs>
<clipPath id="clip0_20_840">
<rect width="37.977" height="37.1858" fill="white"/>
</clipPath>
</defs>
</svg>
