<svg width="38" height="38" viewBox="0 0 38 38" fill="none" xmlns="http://www.w3.org/2000/svg">
<g clip-path="url(#clip0_20_876)">
<path d="M36.1669 27.1299H30.7433V25.3142H32.5472V23.5103H5.42925V25.3142H7.2391V27.1299H1.80957V37.9771H36.1669V27.1299ZM9.03707 25.3142H28.9275V27.1299H9.03707V25.3142ZM34.363 36.1732H3.61348V28.9338H34.363V36.1732Z" fill="#00B5FF"/>
<path d="M34.3627 1.80396H32.5469V23.5102H34.3627V1.80396Z" fill="#00B5FF"/>
<path d="M30.7425 30.7378H21.6992V32.5536H30.7425V30.7378Z" fill="#00B5FF"/>
<path d="M23.5031 12.6628H21.6992V14.4667H23.5031V12.6628Z" fill="#00B5FF"/>
<path d="M23.5031 9.04321H21.6992V10.8471H23.5031V9.04321Z" fill="#00B5FF"/>
<path d="M21.7 14.4668H16.2764V16.2707H21.7V14.4668Z" fill="#00B5FF"/>
<path d="M16.2767 12.6628H14.4609V14.4667H16.2767V12.6628Z" fill="#00B5FF"/>
<path d="M16.2767 9.04321H14.4609V10.8471H16.2767V9.04321Z" fill="#00B5FF"/>
<path d="M7.23828 21.7062H30.7484V3.61963H7.23828V21.7062ZM9.03626 5.42354H28.9267V19.8904H9.03626V5.42354Z" fill="#00B5FF"/>
<path d="M10.8531 30.7378H7.2334V34.3575H10.8531V30.7378Z" fill="#00B5FF"/>
<path d="M32.5467 0H5.42871V1.80391H32.5467V0Z" fill="#00B5FF"/>
<path d="M5.42906 1.80396H3.61328V23.5102H5.42906V1.80396Z" fill="#00B5FF"/>
</g>
<defs>
<clipPath id="clip0_20_876">
<rect width="37.977" height="37.977" fill="white"/>
</clipPath>
</defs>
</svg>
