<svg width="38" height="38" viewBox="0 0 38 38" fill="none" xmlns="http://www.w3.org/2000/svg">
<path d="M35.265 11.7551H33.4492V33.4614H35.265V11.7551Z" fill="#00B5FF"/>
<path d="M33.4494 33.4612H31.6455V35.2651H33.4494V33.4612Z" fill="#00B5FF"/>
<path d="M33.4494 9.95117H31.6455V11.7551H33.4494V9.95117Z" fill="#00B5FF"/>
<path d="M31.6461 35.2651H6.33203V37.069H31.6461V35.2651Z" fill="#00B5FF"/>
<path d="M31.6456 8.1355H24.4062V9.95127H31.6456V8.1355Z" fill="#00B5FF"/>
<path d="M24.4055 4.51562H22.6016V8.13531H24.4055V4.51562Z" fill="#00B5FF"/>
<path d="M22.6027 2.71191H20.7988V4.51582H22.6027V2.71191Z" fill="#00B5FF"/>
<path d="M20.7984 0.907959H17.1787V2.71187H20.7984V0.907959Z" fill="#00B5FF"/>
<path d="M17.1791 2.71191H15.3633V4.51582H17.1791V2.71191Z" fill="#00B5FF"/>
<path d="M15.3625 4.51562H13.5586V8.13531H15.3625V4.51562Z" fill="#00B5FF"/>
<path d="M11.7552 20.7983H9.93945V24.418H11.7552V20.7983Z" fill="#00B5FF"/>
<path d="M9.93965 24.418H8.13574V26.2219H9.93965V24.418Z" fill="#00B5FF"/>
<path d="M9.93965 18.9824H8.13574V20.7982H9.93965V18.9824Z" fill="#00B5FF"/>
<path d="M13.5595 8.1355H6.33203V9.95127H13.5595V8.1355Z" fill="#00B5FF"/>
<path d="M4.51582 17.1787V11.7551H2.71191V18.9826H8.13551V17.1787H4.51582Z" fill="#00B5FF"/>
<path d="M6.3314 33.4612H4.51562V35.2651H6.3314V33.4612Z" fill="#00B5FF"/>
<path d="M6.3314 9.95117H4.51562V11.7551H6.3314V9.95117Z" fill="#00B5FF"/>
<path d="M4.51582 28.0258H8.13551V26.2219H2.71191V33.4613H4.51582V28.0258Z" fill="#00B5FF"/>
</svg>
