<svg width="34" height="39" viewBox="0 0 34 39" fill="none" xmlns="http://www.w3.org/2000/svg">
<path d="M33.5355 0L30.4803 34.4897L16.7472 38.3263L3.05193 34.4951L0 0H33.5355Z" fill="#00B5FF"/>
<path d="M27.8646 32.2935L30.4754 2.82056H16.7676V35.3938L27.8646 32.2935Z" fill="#6AD2FC"/>
<path d="M6.99707 15.6143L7.37335 19.8449H16.7683V15.6143H6.99707Z" fill="#020202"/>
<path d="M16.7676 7.05103H16.7531H6.24023L6.62188 11.2818H16.7676V7.05103Z" fill="#020202"/>
<path d="M16.7679 31.0034V26.6017L16.7495 26.6066L12.0739 25.3344L11.775 21.9602H9.50297H7.56055L8.14873 28.603L16.7486 31.0088L16.7679 31.0034Z" fill="#020202"/>
<path d="M21.9227 19.8447L21.4353 25.3315L16.7529 26.6051V31.0066L25.3597 28.6028L25.4228 27.8881L26.4094 16.7501L26.5118 15.614L27.2697 7.05103H16.7529V11.2817H22.6688L22.2867 15.614H16.7529V19.8447H21.9227Z" fill="#020202"/>
</svg>
