<svg width="39" height="39" viewBox="0 0 39 39" fill="none" xmlns="http://www.w3.org/2000/svg">
<path d="M37.6036 17.4558L20.8699 0.722786C19.9068 -0.240929 18.3438 -0.240929 17.3795 0.722786L13.9047 4.19767L18.3127 8.60572C19.337 8.25958 20.5116 8.49179 21.3282 9.30833C22.1486 10.1301 22.3792 11.3148 22.0246 12.3425L26.2727 16.5908C27.3005 16.2367 28.4864 16.4658 29.3072 17.288C30.4545 18.4348 30.4545 20.2935 29.3072 21.4411C28.1597 22.5888 26.301 22.5888 25.1529 21.4411C24.2899 20.5772 24.0767 19.3099 24.5136 18.2468L20.5519 14.285L20.5515 24.7107C20.8387 24.8527 21.101 25.0403 21.3282 25.2661C22.4754 26.413 22.4754 28.2718 21.3282 29.4203C20.1806 30.5674 18.3211 30.5674 17.1752 29.4203C16.0279 28.2718 16.0279 26.4131 17.1752 25.2663C17.4501 24.9912 17.7768 24.7734 18.1365 24.6254V14.1025C17.7763 13.9555 17.4494 13.7375 17.1752 13.4616C16.3059 12.5935 16.0969 11.3181 16.5423 10.2508L12.1971 5.90502L0.723111 17.3784C-0.241037 18.343 -0.241037 19.9062 0.723111 20.8701L17.4571 37.6034C18.4205 38.5673 19.9832 38.5673 20.9478 37.6034L37.6034 20.9478C38.5673 19.9836 38.5674 18.4195 37.6036 17.4558Z" fill="#00B5FF"/>
</svg>
