<svg width="39" height="38" viewBox="0 0 39 38" fill="none" xmlns="http://www.w3.org/2000/svg">
<path d="M19.1632 0C8.58103 0 0 8.61341 0 19.2389C0 27.7393 5.49084 34.9508 13.105 37.4948C14.0627 37.6728 14.4144 37.0774 14.4144 36.5692C14.4144 36.1105 14.3965 34.5949 14.3884 32.9873C9.05701 34.1511 7.93206 30.7174 7.93206 30.7174C7.06036 28.4936 5.80435 27.9024 5.80435 27.9024C4.06575 26.7083 5.93541 26.7327 5.93541 26.7327C7.85977 26.8685 8.87305 28.7154 8.87305 28.7154C10.5822 31.6566 13.356 30.8062 14.4496 30.3148C14.6215 29.0712 15.1182 28.2226 15.6662 27.7422C11.4099 27.2556 6.93531 25.6059 6.93531 18.2341C6.93531 16.1338 7.68393 14.4175 8.90987 13.0702C8.71088 12.5855 8.055 10.6288 9.09549 7.97878C9.09549 7.97878 10.7047 7.46169 14.3667 9.95088C15.8952 9.52447 17.5346 9.31081 19.1632 9.30357C20.7918 9.31081 22.4324 9.52447 23.9639 9.95088C27.6216 7.46169 29.2286 7.97878 29.2286 7.97878C30.2716 10.6288 29.6154 12.5855 29.4164 13.0702C30.6451 14.4175 31.3886 16.1336 31.3886 18.2341C31.3886 25.6234 26.9056 27.2506 22.6385 27.7268C23.3258 28.3238 23.9382 29.4947 23.9382 31.2895C23.9382 33.8637 23.916 35.9355 23.916 36.5692C23.916 37.0812 24.2609 37.6811 25.2324 37.4922C32.8424 34.9454 38.3263 27.7364 38.3263 19.2389C38.3263 8.61341 29.7465 0 19.1632 0Z" fill="#00B5FF"/>
<path d="M7.17635 27.4063C7.13427 27.5018 6.98427 27.5305 6.84796 27.465C6.70893 27.4022 6.63078 27.2719 6.67587 27.1759C6.7172 27.0775 6.86719 27.0501 7.00591 27.1162C7.14524 27.1788 7.22459 27.3104 7.17635 27.4063ZM8.11899 28.2507C8.02761 28.3358 7.84891 28.2963 7.72763 28.1618C7.60228 28.0277 7.57884 27.8484 7.67157 27.762C7.7658 27.677 7.93909 27.7167 8.06474 27.851C8.19008 27.9866 8.21443 28.1648 8.11884 28.2508L8.11899 28.2507ZM8.76571 29.331C8.64818 29.413 8.4561 29.3362 8.33752 29.1651C8.22014 28.9941 8.22014 28.7889 8.34008 28.7067C8.45911 28.6244 8.64818 28.6984 8.76841 28.8681C8.88564 29.0421 8.88564 29.2473 8.76556 29.3312L8.76571 29.331ZM9.85925 30.5824C9.75419 30.6985 9.53056 30.6675 9.36674 30.5087C9.19931 30.3536 9.15257 30.1335 9.25792 30.0171C9.36418 29.9006 9.58917 29.9334 9.75419 30.0908C9.92057 30.2456 9.97137 30.4674 9.8594 30.5824H9.85925ZM11.2726 31.0048C11.2265 31.1554 11.011 31.2239 10.7939 31.1599C10.5772 31.094 10.4353 30.9175 10.4791 30.7652C10.5242 30.6136 10.7406 30.5422 10.9593 30.6107C11.1757 30.6764 11.3179 30.8515 11.2728 31.0048H11.2726ZM12.8814 31.1839C12.8868 31.3427 12.7027 31.4742 12.4748 31.4771C12.2456 31.4821 12.0603 31.3537 12.0579 31.1977C12.0579 31.0374 12.2378 30.9071 12.4669 30.9033C12.6947 30.8988 12.8814 31.0263 12.8814 31.1839ZM14.4616 31.1231C14.4889 31.2779 14.3305 31.437 14.1043 31.4792C13.8819 31.52 13.676 31.4245 13.6476 31.271C13.6199 31.1123 13.7813 30.9534 14.0033 30.9122C14.23 30.8727 14.4327 30.9658 14.4616 31.1231Z" fill="#00B5FF"/>
</svg>
