<svg width="39" height="39" viewBox="0 0 39 39" fill="none" xmlns="http://www.w3.org/2000/svg">
<g clip-path="url(#clip0_20_512)">
<path d="M38.3273 0H0.000976562V38.3263H38.3273V0Z" fill="#00B5FF"/>
<path d="M25.746 29.9424C26.518 31.2029 27.5224 32.1295 29.2987 32.1295C30.791 32.1295 31.7443 31.3836 31.7443 30.3531C31.7443 29.1181 30.7649 28.6807 29.1223 27.9622L28.222 27.5759C25.6231 26.4687 23.8966 25.0817 23.8966 22.1494C23.8966 19.4483 25.9546 17.3921 29.171 17.3921C31.4608 17.3921 33.107 18.189 34.2933 20.2757L31.4888 22.0764C30.8713 20.9692 30.2052 20.533 29.171 20.533C28.1161 20.533 27.4475 21.2022 27.4475 22.0764C27.4475 23.1569 28.1167 23.5943 29.6619 24.2634L30.5623 24.6491C33.6223 25.9614 35.35 27.2991 35.35 30.3068C35.35 33.5494 32.8029 35.3258 29.3821 35.3258C26.0374 35.3258 23.8765 33.7319 22.8192 31.6428L25.746 29.9424ZM13.0235 30.2545C13.5892 31.2583 14.1039 32.107 15.3413 32.107C16.5245 32.107 17.271 31.644 17.271 29.8439V17.5977H20.8724V29.8925C20.8724 33.6218 18.686 35.3191 15.4946 35.3191C12.611 35.3191 10.9411 33.8268 10.0918 32.0294L13.0235 30.2545Z" fill="black"/>
</g>
<defs>
<clipPath id="clip0_20_512">
<rect width="38.3263" height="38.3263" fill="white"/>
</clipPath>
</defs>
</svg>
