<svg width="36" height="39" viewBox="0 0 36 39" fill="none" xmlns="http://www.w3.org/2000/svg">
<path d="M15.9811 0.408888C16.9411 -0.135067 18.1914 -0.137524 19.1505 0.408888C23.9759 3.10805 28.8027 5.80298 33.6272 8.50377C34.5346 9.00978 35.1416 10.0095 35.1323 11.0446V27.2838C35.1391 28.3617 34.4721 29.3853 33.5148 29.8799C28.7053 32.5642 23.8984 35.2517 19.0897 37.936C18.1099 38.4906 16.8345 38.4479 15.8853 37.8478C14.4434 37.0204 12.999 36.197 11.557 35.3703C11.2624 35.1964 10.9302 35.058 10.7221 34.7752C10.9061 34.5298 11.2349 34.4992 11.5021 34.392C12.104 34.2026 12.6568 33.8985 13.2097 33.6033C13.3495 33.5086 13.5202 33.5449 13.6543 33.6297C14.8872 34.3295 16.1093 35.0497 17.3464 35.7428C17.6103 35.8937 17.8776 35.6934 18.1032 35.5689C22.8227 32.9283 27.5481 30.2977 32.2668 27.6563C32.4416 27.573 32.5383 27.3893 32.5241 27.1997C32.5274 21.8427 32.5249 16.4848 32.5257 11.1279C32.5457 10.9127 32.42 10.7149 32.2235 10.6269C27.4307 7.95491 22.6404 5.27881 17.8485 2.60614C17.7655 2.54963 17.6671 2.51931 17.5664 2.51917C17.4656 2.51902 17.3672 2.54905 17.284 2.60532C12.492 5.27881 7.70256 7.95736 2.91061 10.6292C2.71482 10.7174 2.58341 10.9119 2.60671 11.1279C2.60754 16.4848 2.60671 21.8427 2.60671 27.2005C2.5984 27.293 2.61893 27.3858 2.66552 27.4664C2.71212 27.5471 2.78254 27.6116 2.86732 27.6514C4.14607 28.3692 5.42648 29.082 6.70606 29.7974C7.42693 30.1815 8.31202 30.4098 9.10624 30.1155C9.80711 29.8666 10.2984 29.1586 10.285 28.4219C10.2916 23.0962 10.2817 17.7697 10.29 12.4448C10.2725 12.2084 10.499 12.0131 10.7312 12.0353C11.3456 12.0312 11.9609 12.0271 12.5753 12.037C12.8318 12.0312 13.0083 12.2858 12.9766 12.524C12.9741 17.8834 12.9832 23.243 12.9724 28.6024C12.9741 30.0307 12.3813 31.5849 11.0467 32.2838C9.40256 33.127 7.37039 32.9481 5.7461 32.1396C4.33994 31.4449 2.99803 30.6249 1.61683 29.8806C0.657007 29.3888 -0.00663773 28.361 0.000118678 27.2839V11.0446C-0.00994699 9.98808 0.621157 8.9702 1.55685 8.47156C6.36548 5.78509 11.1733 3.09658 15.9811 0.408888Z" fill="#00B5FF"/>
<path d="M20.176 11.6577C22.2733 11.524 24.5185 11.5785 26.4057 12.6013C27.8669 13.3851 28.677 15.03 28.7027 16.6371C28.6619 16.8538 28.433 16.9734 28.224 16.9585C27.6155 16.9577 27.0069 16.9667 26.3984 16.9544C26.1403 16.9643 25.9903 16.7287 25.9579 16.5028C25.783 15.7338 25.3594 14.9723 24.6284 14.6014C23.5061 14.0452 22.2049 14.0732 20.9811 14.0848C20.0878 14.1317 19.1271 14.2083 18.3703 14.7284C17.7892 15.1223 17.6127 15.9176 17.8201 16.558C18.0156 17.0179 18.5519 17.1663 18.9906 17.3031C21.5181 17.9574 24.1964 17.8923 26.6756 18.7535C27.702 19.1046 28.7061 19.7871 29.0574 20.851C29.517 22.2769 29.3155 23.9812 28.2907 25.1259C27.4597 26.0679 26.2493 26.5806 25.0422 26.859C23.4362 27.2135 21.7696 27.2225 20.1387 27.0652C18.6051 26.8921 17.0092 26.4932 15.8253 25.4588C14.813 24.5886 14.3185 23.2328 14.3676 21.9241C14.3793 21.7031 14.6016 21.549 14.8154 21.5672C15.4282 21.5623 16.041 21.5606 16.6537 21.568C16.8985 21.5507 17.0799 21.7601 17.0925 21.9884C17.2056 22.721 17.4837 23.4899 18.129 23.9243C19.3744 24.7197 20.937 24.6652 22.363 24.6875C23.5444 24.6356 24.8706 24.6199 25.8347 23.8469C26.3434 23.406 26.4941 22.6683 26.3566 22.0338C26.2077 21.498 25.6415 21.2483 25.1554 21.0851C22.6603 20.3037 19.9521 20.5873 17.4812 19.7037C16.4781 19.3527 15.508 18.6892 15.1226 17.669C14.5849 16.2251 14.8313 14.4391 15.9635 13.3331C17.0674 12.2329 18.6609 11.8092 20.176 11.6575V11.6577Z" fill="#00B5FF"/>
</svg>
