<svg width="39" height="39" viewBox="0 0 39 39" fill="none" xmlns="http://www.w3.org/2000/svg">
<path d="M19.3032 22.5421C21.1523 22.5421 22.6513 21.0292 22.6513 19.1631C22.6513 17.297 21.1523 15.7842 19.3032 15.7842C17.4541 15.7842 15.9551 17.297 15.9551 19.1631C15.9551 21.0292 17.4541 22.5421 19.3032 22.5421Z" fill="#00B5FF"/>
<path d="M19.3033 26.0859C29.2254 26.0859 37.2688 22.9865 37.2688 19.1632C37.2688 15.3399 29.2254 12.2405 19.3033 12.2405C9.3813 12.2405 1.33789 15.3399 1.33789 19.1632C1.33789 22.9865 9.3813 26.0859 19.3033 26.0859Z" stroke="#00B5FF" stroke-width="2.67486"/>
<path d="M13.3624 22.6245C18.3234 31.2964 25.0048 36.7766 28.2857 34.8649C31.5665 32.9533 30.2045 24.3737 25.2435 15.7018C20.2824 7.02993 13.6011 1.5497 10.3202 3.46135C7.03934 5.373 8.40138 13.9526 13.3624 22.6245Z" stroke="#00B5FF" stroke-width="2.67486"/>
<path d="M13.3628 15.7017C8.40175 24.3736 7.03971 32.9532 10.3206 34.8648C13.6014 36.7765 20.2828 31.2963 25.2438 22.6244C30.2049 13.9525 31.5669 5.37291 28.286 3.46126C25.0052 1.54961 18.3238 7.02984 13.3628 15.7017Z" stroke="#00B5FF" stroke-width="2.67486"/>
</svg>
