<svg width="39" height="24" viewBox="0 0 39 24" fill="none" xmlns="http://www.w3.org/2000/svg">
<path d="M19.1631 0C14.0528 0 10.859 2.57288 9.58134 7.71817C11.4979 5.14528 13.7336 4.18082 16.2886 4.82379C17.7465 5.19066 18.7884 6.25602 19.9419 7.43481C21.8206 9.35506 23.995 11.5775 28.745 11.5775C33.8548 11.5775 37.0491 9.00461 38.3263 3.85884C36.4102 6.43173 34.1745 7.39668 31.6191 6.7537C30.1616 6.38683 29.1197 5.32148 27.9662 4.14268C26.0875 2.22243 23.9126 0 19.1631 0ZM9.58134 11.5775C4.47148 11.5775 1.27722 14.1504 0 19.2961C1.91608 16.7233 4.15182 15.7583 6.70722 16.4018C8.16465 16.7691 9.20655 17.834 10.3601 19.0123C12.2388 20.9326 14.4137 23.1555 19.1631 23.1555C24.2735 23.1555 27.4673 20.5826 28.745 15.4368C26.8284 18.0097 24.5927 18.9747 22.0377 18.3312C20.5798 17.9648 19.5379 16.899 18.3844 15.7207C16.5057 13.8004 14.3313 11.5775 9.58134 11.5775Z" fill="#00B5FF"/>
</svg>
