<svg width="39" height="39" viewBox="0 0 39 39" fill="none" xmlns="http://www.w3.org/2000/svg">
<path d="M0 0H38.3263V38.3263H0V0Z" fill="#00B5FF"/>
<path d="M18.4029 14.1926H20.2414V17.3665H15.271V31.4874L15.1392 31.5233C14.9596 31.5712 12.5941 31.5712 12.0851 31.5173L11.6779 31.4814V17.3665H6.70741V14.1926L8.28239 14.1747C9.14473 14.1627 11.3605 14.1627 13.2049 14.1747C15.0494 14.1867 17.3849 14.1926 18.4029 14.1926ZM32.434 29.9903C31.7034 30.7628 30.9189 31.1939 29.6134 31.5473C29.0445 31.703 28.9487 31.709 27.6671 31.703C26.3856 31.697 26.2838 31.697 25.661 31.5353C24.0501 31.1221 22.7506 30.3136 21.8643 29.1698C21.6128 28.8465 21.1996 28.1758 21.1996 28.0919C21.1996 28.068 21.2595 28.0141 21.3373 27.9781C21.4152 27.9422 21.5768 27.8404 21.7086 27.7625C21.8403 27.6847 22.0799 27.541 22.2416 27.4571C22.4033 27.3733 22.8704 27.0978 23.2776 26.8523C23.6848 26.6068 24.0561 26.4091 24.098 26.4091C24.1399 26.4091 24.2178 26.493 24.2777 26.5948C24.637 27.1996 25.4754 27.9721 26.0682 28.2356C26.4335 28.3913 27.242 28.565 27.6312 28.565C27.9905 28.565 28.6493 28.4093 29.0026 28.2476C29.3799 28.0739 29.5715 27.9003 29.799 27.5529C29.9547 27.3074 29.9727 27.2415 29.9667 26.7744C29.9667 26.3433 29.9428 26.2235 29.823 26.0259C29.4876 25.4749 29.0325 25.1875 27.1881 24.3731C25.2837 23.5287 24.4274 23.0257 23.7327 22.349C23.2177 21.8459 23.1159 21.7082 22.7925 21.0794C22.3733 20.271 22.3194 20.0075 22.3134 18.8038C22.3074 17.9594 22.3254 17.6839 22.4152 17.3965C22.541 16.9653 22.9482 16.1329 23.1339 15.9233C23.5171 15.4742 23.6549 15.3364 23.9243 15.1149C24.7388 14.4442 26.0083 14.001 27.224 13.9591C27.3617 13.9591 27.8169 13.983 28.242 14.013C29.4637 14.1148 30.2961 14.4142 31.0985 15.055C31.7034 15.5341 32.6196 16.6599 32.5298 16.8096C32.4699 16.8994 30.0805 18.4924 29.9248 18.5403C29.829 18.5702 29.7631 18.5343 29.6314 18.3786C28.8169 17.4025 28.4876 17.1929 27.6971 17.145C27.1342 17.109 26.8347 17.1749 26.4575 17.4264C26.0622 17.6899 25.8706 18.0911 25.8706 18.6481C25.8766 19.4625 26.188 19.8458 27.3378 20.4147C28.0803 20.78 28.7151 21.0794 28.763 21.0794C28.8349 21.0794 30.3739 21.8459 30.7752 22.0855C32.6436 23.1814 33.4041 24.3072 33.6017 26.2475C33.7455 27.7086 33.3323 29.0441 32.434 29.9903Z" fill="#020202"/>
</svg>
