<svg width="39" height="39" viewBox="0 0 39 39" fill="none" xmlns="http://www.w3.org/2000/svg">
<g clip-path="url(#clip0_20_539)">
<path d="M37.8843 5.67268L20.2095 37.826C19.8445 38.4899 18.907 38.4938 18.5366 37.8332L0.51137 5.67567C0.107772 4.95586 0.712875 4.08384 1.51478 4.22977L19.2086 7.44708C19.3215 7.4676 19.437 7.4674 19.5499 7.44648L36.8736 4.23426C37.6728 4.08608 38.2807 4.95138 37.8843 5.67268Z" fill="#00B5FF"/>
<path d="M27.6162 -0.389648C28.2473 -0.474933 28.7473 0.12553 28.5752 0.733398L26.1279 9.36133C26.118 9.39647 26.1276 9.42799 26.1484 9.45117C26.1688 9.47369 26.193 9.48178 26.2197 9.47656L29.9678 8.74023L30.1025 8.72363C30.7632 8.69152 31.2215 9.40253 30.9238 10.0068L20.2656 31.6465L20.2559 31.666L20.2441 31.6836L20.0508 31.9873C19.506 32.8434 18.2605 32.2588 18.4492 31.3291L20.1689 22.8633V22.8623C20.1762 22.8258 20.1641 22.7963 20.1416 22.7754C20.1194 22.7548 20.0952 22.7496 20.0684 22.7578L17.8184 23.4512L17.8193 23.4521C17.1693 23.6531 16.5699 23.074 16.6992 22.4277L17.7812 17.0371C17.7882 17.0022 17.7776 16.973 17.7568 16.9521C17.7361 16.9315 17.7117 16.9246 17.6855 16.9307L14.0439 17.7861C13.9098 17.8176 13.7696 17.8162 13.6357 17.7832C13.5021 17.7502 13.3785 17.6862 13.2744 17.5967C13.1702 17.5071 13.0884 17.3948 13.0352 17.2686C12.982 17.1424 12.9589 17.0056 12.9668 16.8691L13.7715 3.04395C13.7829 2.84934 13.857 2.663 13.9844 2.51465C14.112 2.36613 14.2857 2.26407 14.4785 2.22559L27.5586 -0.381836L27.5967 -0.389648H27.6162Z" fill="#6AD2FC" stroke="black" stroke-width="0.798464"/>
</g>
<defs>
<clipPath id="clip0_20_539">
<rect width="38.3263" height="38.3263" fill="white"/>
</clipPath>
</defs>
</svg>
