<svg width="40" height="39" viewBox="0 0 40 39" fill="none" xmlns="http://www.w3.org/2000/svg">
<path d="M0.372239 13.3649C0.372239 13.3649 -0.580693 12.6847 0.562826 11.7765L3.22707 9.41755C3.22707 9.41755 3.98941 8.62337 4.79543 9.31533L29.3811 27.7466V36.5847C29.3811 36.5847 29.3692 37.9726 27.5705 37.8193L0.372239 13.3649Z" fill="#00B5FF"/>
<path d="M6.70943 19.0618L0.372417 24.7665C0.372417 24.7665 -0.278754 25.2461 0.372417 26.1032L3.3146 28.7531C3.3146 28.7531 4.01342 29.4962 5.04576 28.6509L11.7639 23.6067L6.70943 19.0618Z" fill="#00B5FF"/>
<path d="M17.8347 19.1089L29.4565 10.3218L29.381 1.53078C29.381 1.53078 28.8847 -0.387832 27.229 0.610791L11.7637 14.5483L17.8347 19.1089Z" fill="#00B5FF"/>
<path d="M27.57 37.8312C28.245 38.5153 29.0629 38.2912 29.0629 38.2912L38.1197 33.8721C39.2791 33.0897 39.1163 32.1186 39.1163 32.1186V5.72982C39.1163 4.57001 37.9172 4.16899 37.9172 4.16899L30.0675 0.42219C28.3522 -0.627543 27.2285 0.610905 27.2285 0.610905C27.2285 0.610905 28.6738 -0.419169 29.3806 1.5309V36.4237C29.3806 36.6635 29.3289 36.8994 29.2257 37.1117C29.0192 37.5245 28.5706 37.9098 27.4945 37.7486L27.57 37.8312Z" fill="#6AD2FC"/>
</svg>
