<svg width="163" height="24" viewBox="0 0 163 24" fill="none" xmlns="http://www.w3.org/2000/svg">
<path d="M0 23.5687V23.2606H0.127214C0.890497 23.2606 1.50536 23.0347 1.97182 22.5828C2.43827 22.1309 2.67149 21.5353 2.67149 20.7959V3.23492C2.67149 2.49551 2.43827 1.89987 1.97182 1.44801C1.50536 0.99615 0.890497 0.770219 0.127214 0.770219H0V0.46213H10.1771V0.770219H10.1135C9.35022 0.770219 8.73535 0.99615 8.2689 1.44801C7.80245 1.89987 7.56923 2.49551 7.56923 3.23492V10.3825H18.0644V3.23492C18.0644 2.49551 17.8311 1.89987 17.3647 1.44801C16.8982 0.99615 16.2834 0.770219 15.5201 0.770219H15.4247V0.46213H25.6018V0.770219H25.5064C24.7431 0.770219 24.1282 0.99615 23.6618 1.44801C23.1953 1.89987 22.9621 2.49551 22.9621 3.23492V20.7959C22.9621 21.5353 23.1953 22.1309 23.6618 22.5828C24.1282 23.0347 24.7431 23.2606 25.5064 23.2606H25.6018V23.5687H15.4247V23.2606H15.5201C16.2834 23.2606 16.8982 23.0347 17.3647 22.5828C17.8311 22.1309 18.0644 21.5353 18.0644 20.7959V10.8139H7.56923V20.7959C7.56923 21.5353 7.80245 22.1309 8.2689 22.5828C8.73535 23.0347 9.35022 23.2606 10.1135 23.2606H10.1771V23.5687H0Z" fill="#F7F9F9"/>
<path d="M38.8082 24C36.2639 24 34.0271 23.5071 32.0977 22.5212C30.1894 21.5148 28.6947 20.1181 27.6134 18.3312C26.5532 16.5237 26.0232 14.4185 26.0232 12.0154C26.0232 9.61232 26.5532 7.51733 27.6134 5.73042C28.6947 3.92298 30.1894 2.52632 32.0977 1.54044C34.0271 0.534018 36.2639 0.0308083 38.8082 0.0308083C41.3525 0.0308083 43.5787 0.534018 45.4869 1.54044C47.4163 2.52632 48.9111 3.92298 49.9712 5.73042C51.0525 7.51733 51.5932 9.61232 51.5932 12.0154C51.5932 14.4185 51.0525 16.5237 49.9712 18.3312C48.9111 20.1181 47.4163 21.5148 45.4869 22.5212C43.5787 23.5071 41.3525 24 38.8082 24ZM38.8082 23.5071C39.9107 23.5071 40.9178 23.2298 41.8295 22.6752C42.7412 22.1207 43.5257 21.3402 44.183 20.3338C44.819 19.3273 45.3067 18.1155 45.6459 16.6983C46.0064 15.2811 46.1866 13.7099 46.1866 11.9846C46.1866 10.2593 46.0064 8.68806 45.6459 7.27086C45.3067 5.83312 44.819 4.61104 44.183 3.60462C43.5257 2.5982 42.7412 1.81772 41.8295 1.26316C40.9178 0.708601 39.9107 0.431322 38.8082 0.431322C37.7057 0.431322 36.6986 0.708601 35.7869 1.26316C34.8752 1.81772 34.1013 2.5982 33.4652 3.60462C32.8079 4.61104 32.2991 5.83312 31.9386 7.27086C31.5994 8.68806 31.4298 10.2593 31.4298 11.9846C31.4298 13.7099 31.5994 15.2811 31.9386 16.6983C32.2991 18.1155 32.8079 19.3273 33.4652 20.3338C34.1013 21.3402 34.8752 22.1207 35.7869 22.6752C36.6986 23.2298 37.7057 23.5071 38.8082 23.5071Z" fill="#F7F9F9"/>
<path d="M52.0223 23.5687V23.2606H52.0541C52.8174 23.2606 53.4322 23.0655 53.8987 22.6752C54.3651 22.285 54.5984 21.7202 54.5984 20.9807V3.23492C54.5984 2.49551 54.3651 1.89987 53.8987 1.44801C53.4322 0.99615 52.8174 0.770219 52.0541 0.770219H52.0223V0.46213H62.1676V0.770219H62.0404C61.2771 0.770219 60.6622 0.99615 60.1958 1.44801C59.7293 1.89987 59.4961 2.49551 59.4961 3.23492V21.104C59.4961 21.7612 59.6551 22.2747 59.9731 22.6444C60.3124 22.9936 60.8955 23.1682 61.7223 23.1682H62.3902C64.2772 23.1682 65.8674 22.6033 67.1607 21.4737C68.4541 20.344 69.2704 18.7522 69.6096 16.6983H69.9276L68.9735 23.5687H52.0223Z" fill="#F7F9F9"/>
<path d="M70.1291 23.5687V23.2606H70.1609C70.9242 23.2606 71.5391 23.0347 72.0055 22.5828C72.472 22.1309 72.7052 21.5353 72.7052 20.7959V3.23492C72.7052 2.49551 72.472 1.89987 72.0055 1.44801C71.5391 0.99615 70.9242 0.770219 70.1609 0.770219H70.1291V0.46213H80.2108V0.770219H80.179C79.4157 0.770219 78.8009 0.99615 78.3344 1.44801C77.868 1.89987 77.6348 2.49551 77.6348 3.23492V20.7959C77.6348 21.5353 77.868 22.1309 78.3344 22.5828C78.8009 23.0347 79.4157 23.2606 80.179 23.2606H80.2108V23.5687H70.1291Z" fill="#F7F9F9"/>
<path d="M79.8503 23.5687V23.2606C80.6348 23.2606 81.2603 23.0552 81.7267 22.6444C82.1932 22.2336 82.4264 21.6791 82.4264 20.9807V3.08087C82.4264 2.38254 82.1826 1.82798 81.6949 1.4172C81.2285 0.98588 80.6242 0.770219 79.8821 0.770219V0.46213H90.1228C93.1124 0.46213 95.7203 0.903723 97.9465 1.78691C100.173 2.64955 101.901 3.94352 103.13 5.66881C104.36 7.3941 104.975 9.5199 104.975 12.0462C104.975 14.5725 104.35 16.6881 103.099 18.3928C101.869 20.0976 100.141 21.3915 97.9147 22.2747C95.6884 23.1374 93.0912 23.5687 90.1228 23.5687H79.8503ZM89.5504 23.1682H90.1228C92.031 23.1682 93.6848 22.7471 95.0842 21.905C96.5047 21.0629 97.6073 19.81 98.3917 18.1463C99.1762 16.4827 99.5685 14.4288 99.5685 11.9846C99.5685 9.54044 99.1762 7.49679 98.3917 5.85366C97.6073 4.21053 96.5047 2.97818 95.0842 2.15661C93.6848 1.31451 92.031 0.893453 90.1228 0.893453H87.3241V20.9807C87.3241 21.638 87.4831 22.172 87.8012 22.5828C88.1404 22.973 88.7235 23.1682 89.5504 23.1682Z" fill="#F7F9F9"/>
<path d="M103.499 23.5687V23.2606C103.902 23.2195 104.304 23.0347 104.707 22.706C105.131 22.3569 105.524 21.9255 105.884 21.4121C106.244 20.8986 106.52 20.3954 106.711 19.9024L115.107 0H115.393L123.662 19.9024C124.595 22.1412 125.634 23.2606 126.779 23.2606H126.874V23.5687H116.697V23.2606H116.824C117.778 23.2606 118.415 22.9833 118.733 22.4288C119.072 21.8537 119.029 21.0629 118.605 20.0565L116.697 15.466H109.032L107.251 19.7484C106.87 20.6316 106.912 21.4326 107.379 22.1515C107.866 22.8498 108.64 23.2195 109.7 23.2606V23.5687H103.499ZM109.192 15.0655H116.538L112.913 6.19256L109.192 15.0655Z" fill="#F7F9F9"/>
<path d="M126.034 23.5687V23.2606L137.643 0.862644H136.021C133.773 0.862644 131.992 1.35558 130.678 2.34146C129.384 3.3068 128.6 4.75481 128.324 6.68549H128.006L128.96 0.46213H142.858V0.770219L131.282 23.1682H136.593C138.65 23.1682 140.282 22.665 141.491 21.6585C142.699 20.6521 143.473 19.009 143.813 16.7291H144.131L143.176 23.5687H126.034Z" fill="#F7F9F9"/>
<path d="M144.395 23.5687L144.427 23.2606H144.459C145.222 23.2606 145.837 23.0655 146.303 22.6752C146.77 22.285 147.003 21.7202 147.003 20.9807V3.23492C147.003 2.49551 146.77 1.89987 146.303 1.44801C145.837 0.99615 145.222 0.770219 144.459 0.770219L144.427 0.46213H161.473L162.428 6.65469H162.109C161.473 2.79332 158.961 0.862644 154.572 0.862644H151.901V9.76637H154.763C155.823 9.76637 156.671 9.45828 157.307 8.84211C157.943 8.20539 158.261 7.37356 158.261 6.3466H158.579V13.9255H158.261C158.24 12.8164 157.88 11.9127 157.18 11.2144C156.48 10.516 155.558 10.1669 154.413 10.1669H151.901V20.9807C151.901 22.439 152.643 23.1682 154.127 23.1682H155.463C157.519 23.1682 159.152 22.6547 160.36 21.6277C161.569 20.6008 162.343 18.9884 162.682 16.7908H163L162.046 23.5687H144.395Z" fill="#F7F9F9"/>
</svg>
