<svg width="90" height="96" viewBox="0 0 90 96" fill="none" xmlns="http://www.w3.org/2000/svg">
<path d="M15.7023 0.482513C17.4235 0.482513 18.9565 0.884606 20.3013 1.68879C21.646 2.46617 22.6949 3.55183 23.448 4.94575C24.201 6.31287 24.5776 7.85423 24.5776 9.56983V10.0925C24.5776 11.8081 24.201 13.3629 23.448 14.7568C22.6949 16.1508 21.646 17.2498 20.3013 18.054C18.9565 18.8314 17.4235 19.2201 15.7023 19.2201H9.0458V28.1466H0.130167V0.482513H15.7023ZM9.0458 12.7464H12.7169C13.6583 12.7464 14.3575 12.5051 14.8147 12.0226C15.2988 11.5401 15.5409 10.8833 15.5409 10.0523V9.73066C15.5409 8.87287 15.2988 8.21611 14.8147 7.76041C14.3575 7.27789 13.6583 7.03664 12.7169 7.03664H9.0458V12.7464Z" fill="#00B5FF"/>
<path d="M43.0414 0C47.8286 0 51.5267 1.21968 54.1355 3.65905C56.7443 6.09842 58.0487 9.65025 58.0487 14.3145C58.0487 18.9788 56.7443 22.5306 54.1355 24.97C51.5267 27.4094 47.8286 28.6291 43.0414 28.6291C38.2541 28.6291 34.556 27.4228 31.9473 25.0102C29.3654 22.5709 28.0744 19.0056 28.0744 14.3145C28.0744 9.62344 29.3654 6.07161 31.9473 3.65905C34.556 1.21968 38.2541 0 43.0414 0ZM43.0414 6.63454C41.1318 6.63454 39.6795 7.21088 38.6844 8.36355C37.6893 9.51622 37.1917 11.071 37.1917 13.0278V15.6012C37.1917 17.5581 37.6893 19.1128 38.6844 20.2655C39.6795 21.4182 41.1318 21.9945 43.0414 21.9945C44.9509 21.9945 46.4032 21.4182 47.3983 20.2655C48.4203 19.1128 48.9313 17.5581 48.9313 15.6012V13.0278C48.9313 11.071 48.4203 9.51622 47.3983 8.36355C46.4032 7.21088 44.9509 6.63454 43.0414 6.63454Z" fill="#00B5FF"/>
<path d="M89.1932 8.96669C89.1932 10.6555 88.736 12.1834 87.8215 13.5506C86.9071 14.9177 85.5758 15.9229 83.8276 16.5663L90 28.1466H79.9951L75.0734 18.054H71.7653V28.1466H62.8497V0.482513H79.8338C81.824 0.482513 83.5184 0.871203 84.9169 1.64858C86.3423 2.39916 87.4047 3.4312 88.1039 4.74471C88.8301 6.0314 89.1932 7.43873 89.1932 8.96669ZM80.1162 9.32857C80.1162 8.6048 79.8741 8.00166 79.39 7.51915C78.9059 7.03664 78.3142 6.79538 77.6149 6.79538H71.7653V11.902H77.6149C78.3142 11.902 78.9059 11.6607 79.39 11.1782C79.8741 10.6689 80.1162 10.0523 80.1162 9.32857Z" fill="#00B5FF"/>
<path d="M18.174 41.2349V61.822H9.25838V41.2349H0.14104V34.158H27.251V41.2349H18.174Z" fill="#00B5FF"/>
<path d="M31.3127 34.158H53.7429V40.7925H40.2283V45.5373H51.8468V51.8903H40.2283V61.822H31.3127V34.158Z" fill="#00B5FF"/>
<path d="M74.9927 33.6755C79.78 33.6755 83.478 34.8952 86.0868 37.3345C88.6956 39.7739 90 43.3257 90 47.99C90 52.6543 88.6956 56.2061 86.0868 58.6455C83.478 61.0849 79.78 62.3046 74.9927 62.3046C70.2054 62.3046 66.5074 61.0983 63.8986 58.6857C61.3167 56.2463 60.0257 52.6811 60.0257 47.99C60.0257 43.2989 61.3167 39.7471 63.8986 37.3345C66.5074 34.8952 70.2054 33.6755 74.9927 33.6755ZM74.9927 40.31C73.0832 40.31 71.6308 40.8864 70.6357 42.039C69.6406 43.1917 69.1431 44.7465 69.1431 46.7033V49.2767C69.1431 51.2336 69.6406 52.7883 70.6357 53.941C71.6308 55.0937 73.0832 55.67 74.9927 55.67C76.9022 55.67 78.3545 55.0937 79.3497 53.941C80.3717 52.7883 80.8827 51.2336 80.8827 49.2767V46.7033C80.8827 44.7465 80.3717 43.1917 79.3497 42.039C78.3545 40.8864 76.9022 40.31 74.9927 40.31Z" fill="#00B5FF"/>
<path d="M0 68.336H8.91563V88.9231H23.1564V96H0V68.336Z" fill="#00B5FF"/>
<path d="M38.2003 96V68.336H47.1159V96H38.2003Z" fill="#00B5FF"/>
<path d="M74.9927 67.3709C79.78 67.3709 83.478 68.5906 86.0868 71.03C88.6956 73.4694 90 77.0212 90 81.6855C90 86.3497 88.6956 89.9016 86.0868 92.341C83.478 94.7803 79.78 96 74.9927 96C70.2054 96 66.5074 94.7937 63.8986 92.3812C61.3167 89.9418 60.0257 86.3765 60.0257 81.6855C60.0257 76.9944 61.3167 73.4425 63.8986 71.03C66.5074 68.5906 70.2054 67.3709 74.9927 67.3709ZM74.9927 74.0055C73.0832 74.0055 71.6309 74.5818 70.6357 75.7345C69.6406 76.8871 69.1431 78.4419 69.1431 80.3988V82.9722C69.1431 84.929 69.6406 86.4838 70.6357 87.6365C71.6309 88.7891 73.0832 89.3655 74.9927 89.3655C76.9022 89.3655 78.3545 88.7891 79.3496 87.6365C80.3716 86.4838 80.8826 84.929 80.8826 82.9722V80.3988C80.8826 78.4419 80.3716 76.8871 79.3496 75.7345C78.3545 74.5818 76.9022 74.0055 74.9927 74.0055Z" fill="#00B5FF"/>
</svg>
